<svg width="500" height="500" viewBox="0 0 500 500" fill="none" xmlns="http://www.w3.org/2000/svg">
<path d="M250 496.875C113.655 496.875 3.125 386.345 3.125 250C3.125 113.655 113.655 3.125 250 3.125C386.345 3.125 496.875 113.655 496.875 250C496.875 386.345 386.345 496.875 250 496.875Z" fill="white"/>
<path d="M250 496.875C113.655 496.875 3.125 386.345 3.125 250C3.125 113.655 113.655 3.125 250 3.125C386.345 3.125 496.875 113.655 496.875 250C496.875 386.345 386.345 496.875 250 496.875Z" stroke="#252525" stroke-width="4"/>
<path d="M115.225 128.955L115.601 130.012L116.563 130.588L148.408 149.658C149.351 150.222 149.928 151.24 149.928 152.338V168.863C149.778 169.116 149.594 169.43 149.38 169.8C148.75 170.885 147.857 172.457 146.792 174.423C144.666 178.352 141.847 183.863 139.08 190.2C133.606 202.732 128.091 219.026 129.004 232.725C129.612 241.846 133.265 252.696 136.63 261.062C138.331 265.29 139.993 268.966 141.231 271.589C141.851 272.901 142.365 273.952 142.726 274.677C142.809 274.846 142.885 274.995 142.952 275.128V365.808C142.952 367.532 141.554 368.931 139.829 368.933L97.2363 368.968L94.5126 368.971V372.094V396.875H92.4801V372.094V368.971L90.265 368.968L47.6723 368.933C45.9474 368.931 44.55 367.532 44.55 365.808V275.128C44.6164 274.995 44.6917 274.846 44.7751 274.677C45.1361 273.952 45.6505 272.901 46.2699 271.589C47.5079 268.966 49.1706 265.29 50.8711 261.062C54.236 252.696 57.8886 241.846 58.4965 232.725C59.4097 219.026 53.8948 202.732 48.4218 190.2C45.6544 183.863 42.8353 178.352 40.7083 174.423C39.644 172.457 38.7509 170.885 38.1213 169.8C37.9069 169.43 37.7229 169.116 37.5732 168.863V152.338C37.5732 151.24 38.1502 150.222 39.0928 149.658L70.9375 130.588L71.8994 130.012L72.2756 128.957L72.2793 128.946L72.2968 128.897L72.3744 128.687C72.445 128.498 72.5525 128.215 72.6956 127.852C72.9819 127.123 73.4099 126.074 73.9688 124.811C75.09 122.277 76.7212 118.924 78.7718 115.591C80.8363 112.238 83.2474 109.037 85.8924 106.705C88.5456 104.366 91.1744 103.125 93.7506 103.125C96.3268 103.125 98.9556 104.366 101.609 106.705C104.253 109.037 106.665 112.238 108.729 115.591C110.78 118.924 112.411 122.277 113.533 124.811C114.091 126.074 114.52 127.123 114.805 127.852C114.949 128.215 115.056 128.498 115.126 128.687L115.205 128.897L115.222 128.946L115.225 128.955Z" fill="#252525"/>
<path d="M247.023 218.067C246.722 218.159 246.385 218.204 246.01 218.204C245.186 218.204 244.773 217.931 244.773 217.385C244.773 216.294 245.71 215.611 247.585 215.338C252.159 214.702 254.447 211.653 254.447 206.195C254.447 200.282 251.635 195.915 246.01 193.095C243.161 191.639 239.899 190.912 236.224 190.912C231.2 190.912 225.463 192.322 219.015 195.142C215.265 196.779 212.078 199.054 209.453 201.965C206.229 205.513 204.617 209.379 204.617 213.564C204.617 218.841 207.391 223.526 212.94 227.62C215.715 229.621 220.102 232.26 226.1 235.535C232.176 238.81 236.637 241.54 239.486 243.723C247.21 249.545 251.072 256.505 251.072 264.602C251.072 271.425 248.523 278.384 243.423 285.481C239.374 291.03 234.349 295.988 228.35 300.355C218.527 307.45 207.054 310.999 193.931 310.999C183.282 310.999 174.358 308.497 167.16 303.494C158.387 297.398 153.7 288.391 153.099 276.474C152.724 269.559 154.524 262.281 158.499 254.64C162.473 246.998 167.085 241.676 172.334 238.674C173.159 238.309 173.872 238.127 174.471 238.127C174.921 238.127 175.146 238.264 175.146 238.537C175.146 238.992 174.584 239.72 173.459 240.721C170.31 243.632 167.722 247.043 165.698 250.955C161.573 258.961 159.474 267.467 159.399 276.474C159.324 287.208 163.036 295.306 170.534 300.764C176.684 305.222 184.482 307.45 193.931 307.45C204.43 307.45 213.803 304.858 222.052 299.673C227.526 296.215 232.1 291.849 235.774 286.572C240.048 280.295 242.186 273.881 242.186 267.33C242.186 260.78 239.899 255.276 235.325 250.819C232.849 248.363 227.975 245.269 220.702 241.54C212.528 237.264 207.242 234.17 204.841 232.26C199.143 227.62 196.293 222.207 196.293 216.02C196.293 210.563 198.318 205.422 202.367 200.601C205.817 196.598 209.941 193.55 214.741 191.457C220.814 188.819 227.751 187.5 235.549 187.5C242.073 187.5 247.172 188.591 250.847 190.775C256.021 193.868 258.608 198.326 258.608 204.148C258.608 210.972 254.747 215.611 247.023 218.067Z" fill="#252525"/>
<path d="M377.994 273.063C374.545 282.524 371.695 289.12 369.445 292.85C365.02 300.401 360.11 304.176 354.71 304.176C345.186 304.176 337.351 293.259 331.201 271.425C328.951 263.328 327.339 255.778 326.365 248.772C322.765 257.415 319.953 263.783 317.928 267.877C314.179 275.246 310.392 281.478 306.568 286.572C297.794 298.126 287.558 303.904 275.86 303.904C268.886 303.904 263.675 302.039 260.226 298.308C257.976 295.852 256.851 292.941 256.851 289.574C256.851 284.571 258.988 280.841 263.262 278.384C265.586 277.019 268.211 276.338 271.136 276.338C274.21 276.338 277.584 277.111 281.259 278.658C282.009 278.93 282.384 279.34 282.384 279.886C282.384 280.341 282.122 280.567 281.597 280.567C281.297 280.567 280.959 280.477 280.584 280.295C278.259 279.203 276.085 278.658 274.06 278.658C271.361 278.658 269.073 279.659 267.199 281.66C265.324 283.57 264.387 286.117 264.387 289.301C264.387 295.852 267.574 299.309 273.948 299.673C282.872 300.219 291.27 295.352 299.144 285.071C304.318 278.339 310.73 266.74 318.378 250.274L331.651 221.616C336.376 211.699 340.837 203.922 345.037 198.281C340.987 197.825 336.9 197.599 332.776 197.599C323.103 197.599 313.242 198.872 303.193 201.42C295.245 203.421 288.234 207.105 282.159 212.473C274.585 219.114 270.799 226.711 270.799 235.262C270.799 239.629 271.96 243.177 274.286 245.907C276.685 248.636 279.723 250 283.396 250C288.046 250 292.058 247.817 295.432 243.45C298.131 239.903 299.557 236.945 299.706 234.58C299.781 233.397 299.968 232.806 300.269 232.806C301.018 232.806 301.318 233.488 301.169 234.853C300.718 239.038 299.256 242.722 296.782 245.907C292.733 251.092 287.784 253.684 281.934 253.684C276.536 253.684 272.299 251.592 269.224 247.408C266.149 243.131 264.875 237.719 265.399 231.168C266.149 221.343 270.986 213.019 279.91 206.196C287.109 200.828 295.357 197.325 304.655 195.688C313.129 194.232 321.19 193.504 328.839 193.504C335.213 193.504 341.437 194.005 347.511 195.006C349.386 192.458 350.736 191.184 351.561 191.184C352.011 191.184 352.236 191.639 352.236 192.55C352.236 193.368 352.049 194.415 351.674 195.688C353.772 196.052 357.485 196.916 362.809 198.281C374.057 201.92 379.682 208.015 379.682 216.567C379.682 224.39 375.107 231.214 365.958 237.037C359.134 241.404 351.748 244.36 343.8 245.907C341.024 246.452 337.575 246.862 333.451 247.134C335.926 263.419 340.087 276.975 345.936 287.8C349.835 294.988 353.548 298.58 357.072 298.58C362.922 298.58 369.295 290.074 376.194 273.063C376.569 272.061 377.019 271.425 377.544 271.153C378.069 270.879 378.331 271.061 378.331 271.697C378.331 271.971 378.218 272.426 377.994 273.063ZM361.347 201.692C359.397 200.965 355.723 200.1 350.323 199.1C349.873 200.1 346.199 207.378 339.3 220.933C335.101 229.121 331.576 236.672 328.727 243.587C331.276 243.313 336.001 242.722 342.899 241.813C349.123 240.903 355.198 238.037 361.122 233.216C368.02 227.574 371.471 221.343 371.471 214.519C371.471 208.425 368.096 204.149 361.347 201.692Z" fill="#252525"/>
<path d="M457.678 273.608C454.528 281.159 452.091 286.39 450.367 289.301C447.591 294.032 443.993 298.262 439.568 301.993C431.319 308.998 422.434 312.5 412.909 312.5C407.135 312.5 401.437 311.045 395.812 308.133C382.989 301.492 376.578 288.665 376.578 269.65C376.578 261.645 377.815 253.321 380.289 244.678C382.839 235.944 386.177 228.485 390.301 222.298C389.1 216.749 388.501 210.881 388.501 204.694C388.501 199.782 388.951 195.233 389.852 191.048C390.151 189.774 390.676 189.137 391.426 189.137C392.176 189.137 392.4 190.002 392.1 191.731C391.725 194.187 391.537 197.099 391.537 200.463C391.537 205.649 392.025 211.381 393 217.659C403.874 200.737 417.485 192.276 433.831 192.276C445.08 192.276 453.591 195.733 459.365 202.647C463.489 207.56 465.552 213.564 465.552 220.661C465.552 231.486 461.615 240.401 453.741 247.408C446.618 253.684 438.444 256.823 429.219 256.823C426.595 256.823 423.97 256.596 421.346 256.14C407.923 253.775 398.625 246.043 393.45 232.942C391.725 235.672 389.85 240.857 387.826 248.499C385.276 258.051 384.002 266.876 384.002 274.973C384.002 291.439 389.401 301.629 400.199 305.541C404.174 306.996 408.523 307.724 413.247 307.724C422.246 307.724 430.457 305.085 437.881 299.809C442.306 296.625 446.017 292.622 449.016 287.8C450.966 284.616 453.403 279.431 456.328 272.244C456.703 271.333 457.116 270.879 457.565 270.879C457.94 270.879 458.128 271.243 458.128 271.971C458.128 272.334 457.978 272.88 457.678 273.608ZM436.081 197.462C428.057 197.462 420.296 200.555 412.798 206.741C406.348 212.2 400.649 219.478 395.7 228.575C400.274 242.949 409.385 251.047 423.032 252.866C424.383 253.048 426.22 253.139 428.545 253.139C436.869 253.139 444.105 250.501 450.254 245.224C457.078 239.311 460.49 231.487 460.49 221.752C460.49 215.838 458.877 210.745 455.653 206.469C451.078 200.463 444.555 197.462 436.081 197.462Z" fill="#252525"/>
</svg>
