<svg width="192" height="43" viewBox="0 0 192 43" fill="none" xmlns="http://www.w3.org/2000/svg">
  <path fill-rule="evenodd" clip-rule="evenodd" d="M12 4L16.5138 6.70296C16.8154 6.88359 17 7.20933 17 7.5609V9.9942C17 9.9942 13.7536 15.2975 14 18.9941C14.1643 21.4586 16 24.9942 16 24.9942V37.995C16 38.5469 15.5528 38.9945 15.0008 38.995L9 39V43H8V39L1.99916 38.995C1.44721 38.9945 1 38.5469 1 37.995V24.9942C1 24.9942 2.83572 21.4586 3 18.9941C3.24642 15.2975 0 9.9942 0 9.9942V7.5609C0 7.20933 0.184619 6.88359 0.486244 6.70296L5 4C5 4 6.42434 0 8.5 0C10.5757 0 12 4 12 4ZM37.2884 11.154C37.2269 11.1693 37.1576 11.177 37.0806 11.177C36.9113 11.177 36.8267 11.131 36.8267 11.0389C36.8267 10.8549 37.0191 10.7398 37.4039 10.6938C38.3428 10.5864 38.8122 10.0726 38.8122 9.15221C38.8122 8.15516 38.235 7.41888 37.0806 6.94336C36.4957 6.69793 35.8262 6.57522 35.072 6.57522C34.0407 6.57522 32.8632 6.81298 31.5395 7.2885C30.7699 7.5646 30.1158 7.94808 29.577 8.43894C28.9152 9.03717 28.5843 9.68909 28.5843 10.3947C28.5843 11.2844 29.1538 12.0743 30.2928 12.7646C30.8623 13.1021 31.7627 13.5469 32.9941 14.0991C34.2408 14.6513 35.1566 15.1115 35.7415 15.4796C37.3269 16.4614 38.1196 17.6348 38.1196 19C38.1196 20.1504 37.5963 21.3239 36.5496 22.5204C35.7184 23.456 34.6872 24.292 33.4558 25.0283C31.4395 26.2248 29.0845 26.823 26.3909 26.823C24.2052 26.823 22.3736 26.4012 20.896 25.5575C19.0951 24.5298 18.1331 23.0112 18.01 21.0018C17.933 19.836 18.3024 18.6089 19.1182 17.3204C19.934 16.0319 20.8806 15.1345 21.958 14.6283C22.1273 14.567 22.2735 14.5363 22.3967 14.5363C22.489 14.5363 22.5352 14.5593 22.5352 14.6053C22.5352 14.682 22.4198 14.8047 22.1889 14.9735C21.5424 15.4643 21.0114 16.0395 20.5958 16.6991C19.7492 18.049 19.3183 19.4832 19.3029 21.0018C19.2875 22.8118 20.0494 24.177 21.5886 25.0973C22.8507 25.849 24.4515 26.2248 26.3909 26.2248C28.5458 26.2248 30.4698 25.7876 32.1629 24.9133C33.2865 24.3304 34.2254 23.5941 34.9796 22.7044C35.857 21.646 36.2956 20.5646 36.2956 19.4602C36.2956 18.3558 35.8262 17.4277 34.8873 16.6761C34.3793 16.2619 33.3789 15.7404 31.8858 15.1115C30.2081 14.3906 29.123 13.869 28.6304 13.5469C27.4606 12.7646 26.8757 11.8519 26.8757 10.8088C26.8757 9.8885 27.2913 9.02183 28.1225 8.20885C28.8305 7.53392 29.6771 7.02006 30.6622 6.66726C31.9089 6.22242 33.3327 6 34.9335 6C36.2726 6 37.3192 6.18407 38.0734 6.55221C39.1355 7.07375 39.6665 7.82537 39.6665 8.80708C39.6665 9.95752 38.8738 10.7398 37.2884 11.154ZM64.1713 20.4265C63.4633 22.0218 62.8784 23.1339 62.4166 23.7628C61.5085 25.036 60.5003 25.6726 59.3921 25.6726C57.4373 25.6726 55.8289 23.8319 54.5667 20.1504C54.105 18.7853 53.774 17.5121 53.5739 16.331C52.8351 17.7882 52.2579 18.8619 51.8423 19.5522C51.0727 20.7947 50.2954 21.8454 49.5105 22.7044C47.7096 24.6525 45.6086 25.6265 43.2074 25.6265C41.776 25.6265 40.7062 25.3121 39.9982 24.6832C39.5364 24.269 39.3056 23.7782 39.3056 23.2106C39.3056 22.367 39.7442 21.7381 40.6216 21.3239C41.0987 21.0938 41.6375 20.9788 42.2377 20.9788C42.8688 20.9788 43.5615 21.1091 44.3157 21.3699C44.4696 21.4159 44.5465 21.485 44.5465 21.577C44.5465 21.6537 44.4927 21.692 44.3849 21.692C44.3234 21.692 44.2541 21.6767 44.1771 21.646C43.7 21.4619 43.2536 21.3699 42.838 21.3699C42.2839 21.3699 41.8145 21.5386 41.4297 21.8761C41.0449 22.1982 40.8525 22.6277 40.8525 23.1646C40.8525 24.269 41.5066 24.8519 42.8149 24.9133C44.6466 25.0053 46.3705 24.1847 47.9866 22.4513C49.0487 21.3162 50.3647 19.3605 51.9347 16.5841L54.6591 11.7522C55.6288 10.0802 56.5446 8.76873 57.4065 7.8177C56.5754 7.741 55.7365 7.70265 54.89 7.70265C52.9044 7.70265 50.8803 7.9174 48.8178 8.3469C47.1863 8.68437 45.7471 9.3056 44.5004 10.2106C42.9458 11.3304 42.1685 12.6112 42.1685 14.0531C42.1685 14.7894 42.407 15.3876 42.8842 15.8478C43.3767 16.308 44.0001 16.5381 44.7543 16.5381C45.7086 16.5381 46.5321 16.1699 47.2247 15.4336C47.7789 14.8354 48.0713 14.3369 48.1021 13.9381C48.1175 13.7386 48.156 13.6389 48.2175 13.6389C48.3714 13.6389 48.433 13.754 48.4022 13.9841C48.3099 14.6897 48.0097 15.3109 47.5018 15.8478C46.6706 16.7221 45.6548 17.1593 44.4542 17.1593C43.346 17.1593 42.4763 16.8065 41.8452 16.1009C41.2142 15.3799 40.9525 14.4673 41.0602 13.3628C41.2142 11.7062 42.207 10.3027 44.0386 9.15221C45.5162 8.2472 47.2094 7.65664 49.118 7.38053C50.8573 7.1351 52.5119 7.01239 54.0819 7.01239C55.3902 7.01239 56.6677 7.09675 57.9145 7.26549C58.2993 6.83599 58.5763 6.62124 58.7457 6.62124C58.838 6.62124 58.8842 6.69793 58.8842 6.85133C58.8842 6.98938 58.8457 7.16578 58.7687 7.38053C59.1997 7.44189 59.9616 7.58761 61.0545 7.8177C63.3633 8.43127 64.5177 9.459 64.5177 10.9009C64.5177 12.2201 63.5787 13.3705 61.7009 14.3522C60.3002 15.0885 58.7841 15.587 57.1526 15.8478C56.5831 15.9398 55.875 16.0089 55.0285 16.0549C55.5364 18.8006 56.3907 21.0861 57.5913 22.9115C58.3916 24.1233 59.1535 24.7292 59.877 24.7292C61.0775 24.7292 62.3859 23.295 63.8019 20.4265C63.8789 20.2578 63.9712 20.1504 64.079 20.1044C64.1867 20.0584 64.2406 20.0891 64.2406 20.1965C64.2406 20.2425 64.2175 20.3192 64.1713 20.4265ZM60.7543 8.39292C60.3541 8.27021 59.5999 8.12448 58.4917 7.95575C58.3993 8.12448 57.6451 9.35162 56.2291 11.6372C55.3671 13.0177 54.6437 14.2909 54.0588 15.4566C54.5821 15.4106 55.5518 15.3109 56.9679 15.1575C58.2454 15.0041 59.4922 14.5209 60.7081 13.708C62.1242 12.7569 62.8322 11.7062 62.8322 10.5558C62.8322 9.52802 62.1396 8.80708 60.7543 8.39292ZM85.0014 23.1646C85.2179 22.8644 85.4891 22.4179 85.815 21.8251C85.6876 22.3951 85.6239 22.8186 85.6239 23.0956C85.6239 24.2153 86.1626 24.7752 87.24 24.7752C88.2405 24.7752 89.1409 24.2383 89.9413 23.1646C90.0982 22.9539 90.2808 22.6588 90.4891 22.2794C90.4766 22.4149 90.4704 22.5489 90.4704 22.6814C90.4704 24.0159 91.0091 24.6985 92.0865 24.7292C92.7176 24.7445 93.3871 24.4838 94.0952 23.9469C94.4492 24.3304 94.8879 24.5221 95.4112 24.5221C96.3039 24.5221 97.112 24.0006 97.8354 22.9575C97.9808 22.7533 98.1433 22.4812 98.3228 22.1413C98.2897 22.4041 98.2732 22.6455 98.2732 22.8655C98.2732 23.4791 98.4271 23.9469 98.735 24.269C99.0428 24.5758 99.4353 24.7292 99.9125 24.7292C100.513 24.7292 101.036 24.5145 101.482 24.085C101.514 24.0546 101.547 24.0227 101.579 23.9894L101.142 24.8903C101.25 24.8289 101.55 24.7906 102.043 24.7752C102.412 24.7599 102.658 24.6372 102.781 24.4071C103.797 22.4283 104.875 20.9097 106.014 19.8513C106.599 19.3145 107.068 18.9847 107.422 18.8619C107.73 18.7546 107.884 18.8313 107.884 19.092C107.884 19.2608 107.807 19.4678 107.653 19.7133C106.653 21.3086 106.152 22.5127 106.152 23.3257C106.152 24.3227 106.637 24.8212 107.607 24.8212C108.431 24.8212 109.308 24.0703 110.237 22.5685C110.208 22.7413 110.193 22.9093 110.193 23.0726C110.193 24.177 110.701 24.7292 111.717 24.7292C112.244 24.7292 112.793 24.4123 113.365 23.7786C113.184 24.1594 113.011 24.5299 112.845 24.8903C112.952 24.8289 113.253 24.7906 113.745 24.7752C114.13 24.7599 114.384 24.6372 114.507 24.4071C115.523 22.413 116.593 20.8944 117.716 19.8513C118.286 19.3145 118.763 18.9847 119.148 18.8619C119.44 18.7699 119.586 18.8466 119.586 19.092C119.586 19.2608 119.509 19.4678 119.355 19.7133C118.37 21.2932 117.878 22.4973 117.878 23.3257C117.878 24.3227 118.355 24.8212 119.309 24.8212C120.079 24.8212 120.841 24.2767 121.595 23.1876C121.729 22.9876 121.896 22.7065 122.097 22.3443C122.085 22.4731 122.079 22.6008 122.079 22.7274C122.079 23.6478 122.487 24.2844 123.303 24.6372C123.441 24.6678 123.587 24.6832 123.741 24.6832C125.019 24.6832 126.35 23.341 127.735 20.6566C127.766 20.81 127.782 21.0248 127.782 21.3009C127.782 21.623 127.759 22.0372 127.712 22.5434C127.62 23.4637 127.443 24.315 127.181 25.0973L124.295 26.1097C120.786 27.3369 119.031 28.7097 119.031 30.2283C119.031 31.4094 119.755 32 121.202 32C122.725 32 124.249 31.1947 125.773 29.5841C127.081 28.1882 128.028 26.6619 128.613 25.0053C129.398 24.5758 130.052 24.0083 130.575 23.3027C130.96 22.7965 131.483 21.8531 132.145 20.4726C132.191 20.3805 132.215 20.2962 132.215 20.2195C132.215 20.0968 132.168 20.0354 132.076 20.0354C131.968 20.0354 131.876 20.1198 131.799 20.2885C131.183 21.5156 130.722 22.3363 130.414 22.7504C129.983 23.3333 129.467 23.8319 128.867 24.246C129.175 23.0802 129.329 21.8991 129.329 20.7027C129.329 20.0124 129.275 19.3298 129.167 18.6549C128.844 18.7316 128.597 18.7853 128.428 18.8159C128.105 18.8926 127.874 19.1457 127.735 19.5752C127.489 20.3729 126.989 21.2779 126.235 22.2903C125.357 23.456 124.619 24.0389 124.018 24.0389C123.495 24.0389 123.233 23.7245 123.233 23.0956C123.233 22.1599 123.803 20.9404 124.942 19.4372C126.142 17.8572 127.212 17.0673 128.151 17.0673C128.628 17.0673 128.975 17.351 129.19 17.9186C129.252 18.1027 129.352 18.1947 129.49 18.1947C129.69 18.1947 129.79 18.0796 129.79 17.8496C129.79 17.6348 129.675 17.4354 129.444 17.2513C128.874 16.7912 128.213 16.5611 127.458 16.5611C126.196 16.5611 125.073 17.144 124.088 18.3097C123.26 19.2953 122.688 20.2341 122.372 21.126C121.271 23.2214 120.357 24.269 119.632 24.269C119.355 24.269 119.217 24.0696 119.217 23.6708C119.217 23.4867 119.232 23.3027 119.263 23.1186C119.371 22.505 119.763 21.5233 120.441 20.1735C120.702 19.6519 121.233 18.6549 122.034 17.1823C121.972 17.167 121.895 17.1593 121.803 17.1593C121.372 17.1593 120.702 17.4124 119.794 17.9186C118.393 18.7009 117.077 19.8667 115.846 21.4159C117.108 18.8543 118.039 17.4124 118.64 17.0903C118.532 17.1209 118.363 17.1133 118.132 17.0673C117.901 17.0212 117.747 16.9982 117.67 16.9982C117.285 16.9676 116.947 17.1133 116.654 17.4354C116.5 17.6195 116.292 17.9569 116.031 18.4478C115.728 19.0295 115.436 19.5952 115.157 20.145C115.117 20.1833 115.078 20.2388 115.042 20.3115C113.734 22.9805 112.664 24.2844 111.833 24.223C111.433 24.1923 111.232 23.9469 111.232 23.4867C111.232 23.2873 111.279 23.0496 111.371 22.7735C111.448 22.5434 111.533 22.3209 111.625 22.1062L113.472 17.8035C113.58 17.5581 113.634 17.3971 113.634 17.3204C113.634 17.0903 113.418 16.9829 112.987 16.9982L111.717 17.0212C111.902 17.282 111.994 17.5121 111.994 17.7115C111.994 17.8035 111.979 17.8879 111.948 17.9646L111.07 20.2073C111.054 20.2314 111.039 20.2585 111.024 20.2885C109.669 23.0496 108.63 24.3994 107.907 24.3381C107.63 24.3227 107.491 24.1156 107.491 23.7168C107.491 23.5634 107.515 23.364 107.561 23.1186C107.684 22.4743 108.076 21.485 108.738 20.1504C108.984 19.6596 109.515 18.6702 110.331 17.1823C110.27 17.167 110.193 17.1593 110.1 17.1593C109.669 17.1593 109 17.4124 108.092 17.9186C106.645 18.7316 105.344 19.882 104.19 21.3699C105.36 18.9923 106.452 16.8909 107.468 15.0655C108.731 12.7799 109.608 11.3764 110.1 10.8549C109.977 10.8855 109.816 10.8779 109.616 10.8319C109.369 10.7858 109.208 10.7628 109.131 10.7628C108.592 10.7168 108.046 11.2 107.491 12.2124C106.322 14.3752 105.213 16.5227 104.167 18.6549L102.728 21.6219C101.773 23.2793 100.935 24.108 100.213 24.108C99.7047 24.108 99.4507 23.8012 99.4507 23.1876C99.4507 23.0649 99.4738 22.8808 99.52 22.6354C99.7508 21.3929 99.9278 20.6106 100.051 20.2885C101.267 19.1841 102.291 17.9186 103.122 16.492H104.461C104.599 16.492 104.669 16.3923 104.669 16.1929C104.669 16.0549 104.615 15.9858 104.507 15.9858H103.399C104.445 14.0838 104.969 12.7339 104.969 11.9363C104.969 11.246 104.707 10.9009 104.184 10.9009C103.43 10.9009 102.706 11.5068 102.013 12.7186C101.413 13.7617 100.851 14.8507 100.328 15.9858H98.9428C98.8042 15.9858 98.735 16.0779 98.735 16.2619C98.735 16.4153 98.7888 16.492 98.8966 16.492H100.097C99.3968 18.1706 98.8982 19.5871 98.6012 20.7415C98.2203 21.5613 97.9342 22.1236 97.7431 22.4283C97.035 23.5481 96.3347 24.108 95.6421 24.108C95.1034 24.108 94.7339 23.9316 94.5339 23.5788C96.15 22.0602 96.9581 20.4342 96.9581 18.7009C96.9581 17.3817 96.4194 16.7068 95.3419 16.6761C94.4646 16.6608 93.5795 17.1056 92.6868 18.0106C91.948 18.7469 91.3708 19.5906 90.9552 20.5416C90.9424 20.5714 90.9299 20.6011 90.9176 20.6307C90.7763 20.8499 90.6048 21.1346 90.4031 21.485C89.8028 22.528 89.4565 23.1032 89.3641 23.2106C88.7946 23.9009 88.2405 24.246 87.7018 24.246C87.1169 24.246 86.8244 23.8165 86.8244 22.9575C86.8244 22.5894 86.8783 22.2059 86.9861 21.8071C87.1554 21.1628 87.317 20.6566 87.4709 20.2885C89.2872 18.6319 90.8648 16.331 92.2039 13.3858C92.5734 12.5729 92.7581 11.8979 92.7581 11.3611C92.7581 10.6555 92.4887 10.3027 91.95 10.3027C91.1958 10.3027 90.457 10.9086 89.7335 12.1204C88.1943 14.7127 87.0245 17.4201 86.2242 20.2425L86.1928 20.3534C85.6068 21.5316 85.1173 22.3843 84.7243 22.9115C84.1087 23.7245 83.3468 24.3994 82.4386 24.9363C80.9148 25.826 79.2294 26.2708 77.3824 26.2708C76.4127 26.2708 75.5199 26.1481 74.7041 25.9027C72.4877 25.2431 71.3795 23.5251 71.3795 20.7487C71.3795 19.3835 71.6411 17.8956 72.1645 16.285C72.5801 14.9965 72.9649 14.1221 73.3189 13.6619C74.3809 15.8708 76.2895 17.1746 79.0447 17.5735C79.5834 17.6501 80.1221 17.6885 80.6609 17.6885C82.5541 17.6885 84.2318 17.1593 85.694 16.1009C87.3102 14.9198 88.1183 13.4165 88.1183 11.5912C88.1183 10.3947 87.695 9.3823 86.8484 8.55398C85.6632 7.3882 83.9163 6.80531 81.6075 6.80531C78.252 6.80531 75.4584 8.23186 73.2265 11.085C73.0264 10.0265 72.9264 9.06018 72.9264 8.18584C72.9264 7.61829 72.9649 7.12743 73.0418 6.71327C73.1034 6.42183 73.0572 6.27611 72.9033 6.27611C72.7494 6.27611 72.6416 6.38348 72.58 6.59823C72.3953 7.30383 72.303 8.0708 72.303 8.89911C72.303 9.94218 72.4261 10.9316 72.6724 11.8673C71.8258 12.9103 71.1409 14.1681 70.6176 15.6407C70.1096 17.0979 69.8557 18.5015 69.8557 19.8513C69.8557 23.0572 71.1717 25.2201 73.8037 26.3398C74.9581 26.8307 76.1279 27.0761 77.3131 27.0761C79.2679 27.0761 81.0918 26.4855 82.785 25.3044C83.6931 24.6755 84.4319 23.9622 85.0014 23.1646ZM77.29 9.24425C78.8292 8.20118 80.4223 7.67965 82.0692 7.67965C83.8085 7.67965 85.1476 8.18584 86.0865 9.19823C86.7484 9.91917 87.0793 10.7782 87.0793 11.7752C87.0793 13.4165 86.379 14.7357 84.9783 15.7327C83.7162 16.6224 82.2308 17.0673 80.5223 17.0673C80.0452 17.0673 79.6681 17.0519 79.391 17.0212C76.5897 16.7145 74.7195 15.3493 73.7806 12.9257C74.7965 11.3917 75.9663 10.1646 77.29 9.24425ZM91.8576 13.0407C92.1039 12.4578 92.227 11.967 92.227 11.5681C92.227 11.3534 92.1732 11.246 92.0654 11.246C91.9115 11.246 91.6575 11.4991 91.3035 12.0053C90.2722 13.4779 89.0563 15.9935 87.6556 19.5522C89.3179 17.8802 90.7186 15.7097 91.8576 13.0407ZM93.7489 18.5628C94.3953 17.7959 95.0033 17.4124 95.5728 17.4124C96.1115 17.4124 96.3809 17.7882 96.3809 18.5398C96.3809 19.2608 96.1346 20.1504 95.6421 21.2089C95.4266 21.6844 95.188 22.0985 94.9263 22.4513C94.9571 22.3746 94.9725 22.2903 94.9725 22.1982C94.9725 21.7381 94.7416 21.508 94.2799 21.508C93.7566 21.508 93.4872 21.8378 93.4718 22.4973C93.4718 22.8655 93.5949 23.2413 93.8412 23.6248C93.3641 24.0236 92.9254 24.223 92.5252 24.223C92.0019 24.223 91.7402 23.8855 91.7402 23.2106C91.7402 22.5204 92.0096 21.6 92.5483 20.4496C92.8715 19.744 93.2717 19.115 93.7489 18.5628ZM104.045 13.6389C104.291 13.0714 104.415 12.5729 104.415 12.1434C104.415 11.8979 104.361 11.7752 104.253 11.7752C104.068 11.7752 103.776 12.059 103.376 12.6265C103.114 12.9947 102.568 14.1145 101.736 15.9858H102.891C103.276 15.2956 103.66 14.5133 104.045 13.6389ZM102.591 16.492H101.506C101.275 17.0442 100.859 18.0643 100.259 19.5522C101.075 18.7392 101.852 17.7192 102.591 16.492ZM115.596 14.6743C115.55 14.9351 115.419 15.1575 115.204 15.3416C114.988 15.5257 114.749 15.6177 114.488 15.6177C114.226 15.6177 114.018 15.5257 113.864 15.3416C113.711 15.1575 113.649 14.9351 113.68 14.6743C113.711 14.4136 113.834 14.1912 114.049 14.0071C114.28 13.823 114.526 13.731 114.788 13.731C115.05 13.731 115.257 13.823 115.411 14.0071C115.581 14.1912 115.642 14.4136 115.596 14.6743ZM126.95 25.7646C126.181 26.0254 125.034 26.4319 123.51 26.9841C122.433 27.4136 121.563 27.8737 120.901 28.3646C119.993 29.0395 119.539 29.7912 119.539 30.6195C119.539 31.233 119.909 31.5398 120.647 31.5398C122.294 31.5398 123.957 30.3894 125.634 28.0885C126.173 27.3369 126.612 26.5622 126.95 25.7646ZM155.519 11.177C155.596 11.177 155.666 11.1693 155.727 11.154C157.313 10.7398 158.105 9.95752 158.105 8.80708C158.105 7.82537 157.574 7.07375 156.512 6.55221C155.758 6.18407 154.711 6 153.372 6C151.771 6 150.348 6.22242 149.101 6.66726C148.116 7.02006 147.269 7.53392 146.561 8.20885C145.73 9.02183 145.314 9.8885 145.314 10.8088C145.314 11.8519 145.899 12.7646 147.069 13.5469C147.562 13.869 148.647 14.3906 150.325 15.1115C151.818 15.7404 152.818 16.2619 153.326 16.6761C154.265 17.4277 154.734 18.3558 154.734 19.4602C154.734 20.5646 154.296 21.646 153.418 22.7044C152.664 23.5941 151.725 24.3304 150.602 24.9133C148.908 25.7876 146.984 26.2248 144.83 26.2248C142.89 26.2248 141.289 25.849 140.027 25.0973C138.488 24.177 137.726 22.8118 137.742 21.0018C137.757 19.4832 138.188 18.049 139.035 16.6991C139.45 16.0395 139.981 15.4643 140.628 14.9735C140.858 14.8047 140.974 14.682 140.974 14.6053C140.974 14.5593 140.928 14.5363 140.835 14.5363C140.712 14.5363 140.566 14.567 140.397 14.6283C139.319 15.1345 138.373 16.0319 137.557 17.3204C136.741 18.6089 136.372 19.836 136.449 21.0018C136.572 23.0112 137.534 24.5298 139.335 25.5575C140.812 26.4012 142.644 26.823 144.83 26.823C147.523 26.823 149.878 26.2248 151.895 25.0283C153.126 24.292 154.157 23.456 154.988 22.5204C156.035 21.3239 156.558 20.1504 156.558 19C156.558 17.6348 155.766 16.4614 154.18 15.4796C153.595 15.1115 152.68 14.6513 151.433 14.0991C150.201 13.5469 149.301 13.1021 148.731 12.7646C147.592 12.0743 147.023 11.2844 147.023 10.3947C147.023 9.68909 147.354 9.03717 148.016 8.43894C148.554 7.94808 149.209 7.5646 149.978 7.2885C151.302 6.81298 152.479 6.57522 153.511 6.57522C154.265 6.57522 154.934 6.69793 155.519 6.94336C156.674 7.41888 157.251 8.15516 157.251 9.15221C157.251 10.0726 156.781 10.5864 155.843 10.6938C155.458 10.7398 155.265 10.8549 155.265 11.0389C155.265 11.131 155.35 11.177 155.519 11.177ZM164.301 15.9858C164.409 15.9858 164.463 16.0549 164.463 16.1929C164.463 16.3923 164.394 16.492 164.255 16.492H162.916C162.085 17.9186 161.061 19.1841 159.845 20.2885C159.722 20.6106 159.545 21.3929 159.314 22.6354C159.268 22.8808 159.245 23.0649 159.245 23.1876C159.245 23.8012 159.499 24.108 160.007 24.108C160.87 24.108 161.899 22.9244 163.094 20.5574C163.323 20.0927 163.866 19.006 164.723 17.2973C164.892 16.9752 165.192 16.8142 165.623 16.8142H167.032C166.478 17.213 165.985 17.8572 165.554 18.7469C165.277 19.2991 164.792 20.2885 164.1 21.715C163.776 22.39 163.615 22.9652 163.615 23.4407C163.615 23.9469 163.792 24.2 164.146 24.2C164.5 24.2 164.938 23.9009 165.462 23.3027C166.231 22.413 167.378 20.4112 168.902 17.2973C169.056 16.9752 169.356 16.8142 169.802 16.8142H171.049C170.541 17.2283 170.01 17.9876 169.456 19.092C168.548 20.9021 168.032 22.1215 167.909 22.7504C167.863 22.9959 167.84 23.1799 167.84 23.3027C167.84 23.8395 168.009 24.1156 168.348 24.131C169.133 24.1457 170.102 22.961 171.258 20.5769C171.276 20.5347 171.294 20.4922 171.313 20.4496C171.682 19.6519 172.129 18.9386 172.652 18.3097C173.622 17.144 174.753 16.5611 176.046 16.5611C176.6 16.5611 177.123 16.6991 177.616 16.9752C178.801 14.751 179.694 12.9333 180.294 11.5221C180.479 11.0773 180.679 10.7628 180.894 10.5788C181.125 10.3794 181.448 10.295 181.864 10.3257C182.587 10.387 182.918 10.4177 182.857 10.4177C182.349 10.9086 181.287 12.6879 179.671 15.7558C178.255 18.4708 177.285 20.4419 176.762 21.669C176.469 22.3593 176.323 22.9345 176.323 23.3947C176.323 23.8855 176.515 24.131 176.9 24.131C177.639 24.131 178.632 22.8578 179.878 20.3115C179.892 20.2818 179.906 20.2547 179.919 20.2302L180.806 17.9646C180.837 17.8879 180.852 17.8035 180.852 17.7115C180.852 17.5121 180.76 17.282 180.575 17.0212L181.845 16.9982C182.276 16.9829 182.492 17.0903 182.492 17.3204C182.492 17.3971 182.438 17.5581 182.33 17.8035L180.483 22.1062C180.391 22.3209 180.306 22.5434 180.229 22.7735C180.137 23.0496 180.091 23.2873 180.091 23.4867C180.091 23.9469 180.291 24.1923 180.691 24.223C181.49 24.282 182.51 23.0786 183.75 20.6129L183.767 20.573L183.781 20.5416C184.196 19.5906 184.773 18.7469 185.512 18.0106C186.405 17.1056 187.29 16.6608 188.167 16.6761C189.245 16.7068 189.784 17.3817 189.784 18.7009C189.784 20.4342 188.975 22.0602 187.359 23.5788C187.559 23.9316 187.929 24.108 188.468 24.108C189.16 24.108 189.861 23.5481 190.569 22.4283C190.799 22.0602 191.169 21.3162 191.677 20.1965C191.723 20.1198 191.777 20.0814 191.838 20.0814C191.946 20.0814 192 20.1428 192 20.2655C192 20.2962 191.985 20.3499 191.954 20.4265C191.43 21.6383 191 22.482 190.661 22.9575C189.937 24.0006 189.129 24.5221 188.237 24.5221C187.713 24.5221 187.275 24.3304 186.921 23.9469C186.213 24.4838 185.543 24.7445 184.912 24.7292C183.835 24.6985 183.296 24.0159 183.296 22.6814C183.296 22.5298 183.304 22.3763 183.32 22.2208C182.346 23.8931 181.431 24.7292 180.575 24.7292C179.56 24.7292 179.052 24.177 179.052 23.0726C179.052 22.9197 179.064 22.7627 179.089 22.6014C178.217 24.02 177.349 24.7292 176.485 24.7292C176.038 24.7292 175.692 24.5298 175.446 24.131C175.245 23.7782 175.145 23.3717 175.145 22.9115C175.145 22.6507 175.176 22.3746 175.238 22.0832C174.761 22.8808 174.368 23.4407 174.06 23.7628C173.491 24.3764 172.921 24.6832 172.352 24.6832C172.198 24.6832 172.036 24.6678 171.867 24.6372C171.097 24.4224 170.713 23.8395 170.713 22.8885C170.713 22.6861 170.728 22.4765 170.76 22.2596C170.522 22.6799 170.341 22.9739 170.218 23.1416C169.479 24.1847 168.763 24.7062 168.071 24.7062C167.209 24.7062 166.778 24.1617 166.778 23.0726C166.778 22.6737 166.855 22.2366 167.009 21.7611C165.885 23.7245 164.846 24.7062 163.892 24.7062C162.891 24.7062 162.391 24.223 162.391 23.2566C162.391 22.9656 162.539 22.4867 162.834 21.8199C162.263 22.8869 161.744 23.6419 161.277 24.085C160.83 24.5145 160.307 24.7292 159.707 24.7292C159.23 24.7292 158.837 24.5758 158.529 24.269C158.221 23.9469 158.068 23.4791 158.068 22.8655C158.068 21.531 158.675 19.4065 159.891 16.492H158.691C158.583 16.492 158.529 16.4153 158.529 16.2619C158.529 16.0779 158.599 15.9858 158.737 15.9858H160.122C160.646 14.8507 161.207 13.7617 161.808 12.7186C162.5 11.5068 163.224 10.9009 163.978 10.9009C164.501 10.9009 164.763 11.246 164.763 11.9363C164.763 12.7339 164.24 14.0838 163.193 15.9858H164.301ZM163.84 13.6389C164.086 13.0714 164.209 12.5729 164.209 12.1434C164.209 11.8979 164.155 11.7752 164.047 11.7752C163.863 11.7752 163.57 12.059 163.17 12.6265C162.908 12.9947 162.362 14.1145 161.531 15.9858H162.685C163.07 15.2956 163.455 14.5133 163.84 13.6389ZM162.385 16.492H161.3C161.069 17.0442 160.653 18.0643 160.053 19.5522C160.869 18.7392 161.646 17.7192 162.385 16.492ZM177.431 17.3434C177.231 17.1593 177 17.0673 176.738 17.0673C176.03 17.0673 175.207 17.5735 174.268 18.5858C173.56 19.3528 172.983 20.1581 172.536 21.0018C172.09 21.8301 171.867 22.5357 171.867 23.1186C171.867 23.7322 172.075 24.0389 172.49 24.0389C173.137 24.0389 174.076 23.0572 175.307 21.0938C175.692 20.4956 176.4 19.2454 177.431 17.3434ZM184.062 15.3416C184.277 15.1575 184.408 14.9351 184.454 14.6743C184.5 14.4136 184.439 14.1912 184.27 14.0071C184.116 13.823 183.908 13.731 183.646 13.731C183.384 13.731 183.138 13.823 182.907 14.0071C182.692 14.1912 182.569 14.4136 182.538 14.6743C182.507 14.9351 182.569 15.1575 182.723 15.3416C182.877 15.5257 183.084 15.6177 183.346 15.6177C183.608 15.6177 183.846 15.5257 184.062 15.3416ZM188.398 17.4124C187.829 17.4124 187.221 17.7959 186.574 18.5628C186.097 19.115 185.697 19.744 185.374 20.4496C184.835 21.6 184.566 22.5204 184.566 23.2106C184.566 23.8855 184.827 24.223 185.351 24.223C185.751 24.223 186.19 24.0236 186.667 23.6248C186.42 23.2413 186.297 22.8655 186.297 22.4973C186.313 21.8378 186.582 21.508 187.105 21.508C187.567 21.508 187.798 21.7381 187.798 22.1982C187.798 22.2903 187.783 22.3746 187.752 22.4513C188.013 22.0985 188.252 21.6844 188.468 21.2089C188.96 20.1504 189.206 19.2608 189.206 18.5398C189.206 17.7882 188.937 17.4124 188.398 17.4124ZM32.1889 38.8462V32H33.0329V33.8654L33.002 34.8269C33.2421 34.6154 33.4926 34.4359 33.7533 34.2885C34.021 34.1346 34.3263 34.0577 34.6694 34.0577C35.1978 34.0577 35.582 34.2147 35.8222 34.5288C36.0692 34.8365 36.1927 35.2885 36.1927 35.8846V38.8462H35.3487V35.9904C35.3487 35.5545 35.2732 35.2372 35.1223 35.0385C34.9713 34.8397 34.7312 34.7404 34.4018 34.7404C34.1479 34.7404 33.918 34.8013 33.7122 34.9231C33.5132 35.0449 33.2867 35.2244 33.0329 35.4615V38.8462H32.1889ZM28.9437 38.9615C28.381 38.9615 27.8767 38.8333 27.4307 38.5769C26.9915 38.3141 26.6416 37.9391 26.3808 37.4519C26.1269 36.9647 26 36.3782 26 35.6923C26 35.0128 26.1304 34.4295 26.3911 33.9423C26.6519 33.4551 27.0087 33.0801 27.4616 32.8173C27.9144 32.5545 28.4256 32.4231 28.9952 32.4231C29.4069 32.4231 29.7705 32.5032 30.0862 32.6635C30.4018 32.8173 30.6557 32.9968 30.8478 33.2019L30.3847 33.7212C30.2063 33.5417 30.0038 33.3974 29.7774 33.2885C29.551 33.1795 29.2937 33.125 29.0055 33.125C28.58 33.125 28.2061 33.2308 27.8836 33.4423C27.5679 33.6474 27.3209 33.9391 27.1425 34.3173C26.9709 34.6955 26.8852 35.1474 26.8852 35.6731C26.8852 36.1987 26.9709 36.6571 27.1425 37.0481C27.314 37.4327 27.5542 37.7308 27.863 37.9423C28.1786 38.1538 28.5491 38.2596 28.9746 38.2596C29.2971 38.2596 29.5853 38.1955 29.8392 38.0673C30.093 37.9391 30.3263 37.766 30.5391 37.5481L31.0125 38.0481C30.7449 38.3365 30.443 38.5609 30.1068 38.7212C29.7705 38.8814 29.3829 38.9615 28.9437 38.9615ZM38.6006 38.6731C38.9643 38.8654 39.3691 38.9615 39.8152 38.9615C40.1583 38.9615 40.4636 38.9135 40.7312 38.8173C41.0057 38.7212 41.2493 38.609 41.462 38.4808L41.1635 37.9615C40.9782 38.0705 40.7827 38.1603 40.5768 38.2308C40.3778 38.2949 40.1583 38.3269 39.9181 38.3269C39.4378 38.3269 39.0466 38.1795 38.7447 37.8846C38.4497 37.5897 38.285 37.1955 38.2507 36.7019H41.6267C41.6404 36.6442 41.6473 36.5769 41.6473 36.5C41.6541 36.4167 41.6576 36.3333 41.6576 36.25C41.6576 35.5833 41.4826 35.0513 41.1326 34.6538C40.7895 34.2564 40.2989 34.0577 39.6608 34.0577C39.2834 34.0577 38.9231 34.1571 38.58 34.3558C38.237 34.5545 37.9556 34.8365 37.736 35.2019C37.5233 35.5673 37.417 36.0064 37.417 36.5192C37.417 37.0256 37.5233 37.4615 37.736 37.8269C37.9488 38.1923 38.237 38.4744 38.6006 38.6731ZM40.9165 36.1346H38.2404C38.2953 35.6731 38.46 35.3173 38.7344 35.0673C39.0158 34.8109 39.3314 34.6827 39.6814 34.6827C40.0725 34.6827 40.3744 34.8077 40.5871 35.0577C40.8067 35.3013 40.9165 35.6603 40.9165 36.1346ZM43.9057 38.9615C43.4871 38.9615 43.1372 38.8462 42.8558 38.6154C42.5814 38.3782 42.4441 38.0513 42.4441 37.6346C42.4441 37.1218 42.6877 36.7308 43.1749 36.4615C43.669 36.1859 44.4478 35.9936 45.5113 35.8846C45.5113 35.6859 45.4805 35.4968 45.4187 35.3173C45.3638 35.1378 45.2609 34.9936 45.1099 34.8846C44.9658 34.7692 44.7566 34.7115 44.4821 34.7115C44.1939 34.7115 43.9228 34.7628 43.669 34.8654C43.4151 34.9679 43.1886 35.0833 42.9896 35.2115L42.6603 34.6635C42.8936 34.5224 43.1783 34.3878 43.5146 34.2596C43.8577 34.125 44.2282 34.0577 44.6262 34.0577C45.2369 34.0577 45.6795 34.234 45.9539 34.5865C46.2284 34.9327 46.3656 35.3974 46.3656 35.9808V38.8462H45.6657L45.5937 38.2885H45.5628C45.3295 38.4679 45.0722 38.625 44.7909 38.7596C44.5164 38.8942 44.2213 38.9615 43.9057 38.9615ZM44.1527 38.3269C44.3929 38.3269 44.6193 38.2724 44.832 38.1635C45.0447 38.0545 45.2712 37.9006 45.5113 37.7019V36.4038C44.6811 36.5 44.0978 36.6442 43.7616 36.8365C43.4322 37.0288 43.2675 37.2756 43.2675 37.5769C43.2675 37.8397 43.3533 38.0321 43.5249 38.1538C43.6964 38.2692 43.9057 38.3269 44.1527 38.3269ZM47.9395 34.1731V40.8173H48.7835V39.2404L48.7629 38.4231C48.9962 38.5897 49.226 38.7212 49.4525 38.8173C49.6858 38.9135 49.9191 38.9615 50.1524 38.9615C50.5366 38.9615 50.89 38.8622 51.2125 38.6635C51.5419 38.4647 51.8061 38.1763 52.0051 37.7981C52.2109 37.4199 52.3138 36.9679 52.3138 36.4423C52.3138 35.7179 52.1457 35.141 51.8095 34.7115C51.4733 34.2756 50.9826 34.0577 50.3376 34.0577C50.0426 34.0577 49.7578 34.1218 49.4833 34.25C49.2157 34.3782 48.9687 34.5321 48.7423 34.7115H48.7114L48.6394 34.1731H47.9395ZM51.0273 37.8077C50.7596 38.1346 50.42 38.2981 50.0083 38.2981C49.8436 38.2981 49.6549 38.2628 49.4422 38.1923C49.2295 38.1154 49.0099 37.9872 48.7835 37.8077V35.3558C49.0305 35.1506 49.2603 34.9936 49.4731 34.8846C49.6926 34.7756 49.9088 34.7212 50.1215 34.7212C50.595 34.7212 50.9312 34.8814 51.1302 35.2019C51.336 35.516 51.439 35.9295 51.439 36.4423C51.439 37.0192 51.3017 37.4744 51.0273 37.8077ZM55.6763 38.9615C55.2303 38.9615 54.8255 38.8654 54.4618 38.6731C54.0981 38.4744 53.8099 38.1923 53.5972 37.8269C53.3845 37.4615 53.2781 37.0256 53.2781 36.5192C53.2781 36.0064 53.3845 35.5673 53.5972 35.2019C53.8168 34.8365 54.0981 34.5545 54.4412 34.3558C54.7843 34.1571 55.1445 34.0577 55.5219 34.0577C56.1601 34.0577 56.6507 34.2564 56.9938 34.6538C57.3437 35.0513 57.5187 35.5833 57.5187 36.25C57.5187 36.3333 57.5153 36.4167 57.5084 36.5C57.5084 36.5769 57.5015 36.6442 57.4878 36.7019H54.1118C54.1461 37.1955 54.3108 37.5897 54.6059 37.8846C54.9078 38.1795 55.2989 38.3269 55.7792 38.3269C56.0194 38.3269 56.239 38.2949 56.438 38.2308C56.6438 38.1603 56.8394 38.0705 57.0247 37.9615L57.3231 38.4808C57.1104 38.609 56.8668 38.7212 56.5924 38.8173C56.3248 38.9135 56.0194 38.9615 55.6763 38.9615ZM54.1015 36.1346H56.7776C56.7776 35.6603 56.6678 35.3013 56.4483 35.0577C56.2356 34.8077 55.9336 34.6827 55.5425 34.6827C55.1926 34.6827 54.8769 34.8109 54.5956 35.0673C54.3211 35.3173 54.1564 35.6731 54.1015 36.1346ZM58.7548 34.1731V38.8462H59.5988V35.8462C59.7703 35.4487 59.9693 35.1699 60.1958 35.0096C60.4291 34.8494 60.6521 34.7692 60.8648 34.7692C60.9677 34.7692 61.0535 34.7756 61.1221 34.7885C61.1907 34.8013 61.2662 34.8205 61.3485 34.8462L61.5132 34.1538C61.3554 34.0897 61.177 34.0577 60.978 34.0577C60.6967 34.0577 60.4325 34.1442 60.1855 34.3173C59.9384 34.4904 59.7292 34.7244 59.5576 35.0192H59.5267L59.4547 34.1731H58.7548ZM65.6908 38.9615C65.3339 38.9615 64.9943 38.9006 64.6718 38.7788C64.3493 38.6506 64.0679 38.4968 63.8278 38.3173L64.2498 37.7885C64.4694 37.9487 64.6958 38.0833 64.9291 38.1923C65.1624 38.2949 65.4266 38.3462 65.7216 38.3462C66.051 38.3462 66.298 38.2756 66.4627 38.1346C66.6274 37.9872 66.7097 37.8141 66.7097 37.6154C66.7097 37.4551 66.6514 37.3205 66.5348 37.2115C66.425 37.1026 66.2809 37.0128 66.1025 36.9423C65.9309 36.8654 65.7525 36.7949 65.5672 36.7308C65.3339 36.6474 65.1041 36.5545 64.8776 36.4519C64.6512 36.3429 64.4659 36.2051 64.3218 36.0385C64.1777 35.8654 64.1057 35.6474 64.1057 35.3846C64.1057 35.0064 64.2566 34.6923 64.5586 34.4423C64.8673 34.1859 65.2928 34.0577 65.8349 34.0577C66.1436 34.0577 66.4318 34.109 66.6994 34.2115C66.967 34.3141 67.1969 34.4391 67.389 34.5865L66.9773 35.0865C66.8058 34.9647 66.6274 34.8654 66.4421 34.7885C66.2569 34.7115 66.0544 34.6731 65.8349 34.6731C65.5192 34.6731 65.2859 34.7404 65.1349 34.875C64.9909 35.0096 64.9188 35.1667 64.9188 35.3462C64.9188 35.4936 64.9703 35.6154 65.0732 35.7115C65.1761 35.8013 65.3099 35.8814 65.4746 35.9519C65.6393 36.016 65.8143 36.0833 65.9995 36.1538C66.2397 36.2372 66.4764 36.3333 66.7097 36.4423C66.943 36.5449 67.1352 36.6859 67.2861 36.8654C67.4439 37.0385 67.5229 37.2724 67.5229 37.5673C67.5229 37.8173 67.4508 38.0481 67.3067 38.2596C67.1695 38.4712 66.9636 38.641 66.6891 38.7692C66.4215 38.8974 66.0887 38.9615 65.6908 38.9615ZM69.4985 38.6731C69.8553 38.8654 70.2361 38.9615 70.641 38.9615C71.0527 38.9615 71.4335 38.8654 71.7834 38.6731C72.1334 38.4808 72.4147 38.2019 72.6274 37.8365C72.847 37.4712 72.9568 37.0321 72.9568 36.5192C72.9568 35.9936 72.847 35.5481 72.6274 35.1827C72.4147 34.8173 72.1334 34.5385 71.7834 34.3462C71.4335 34.1538 71.0527 34.0577 70.641 34.0577C70.2361 34.0577 69.8553 34.1538 69.4985 34.3462C69.1485 34.5385 68.8638 34.8173 68.6442 35.1827C68.4315 35.5481 68.3251 35.9936 68.3251 36.5192C68.3251 37.0321 68.4315 37.4712 68.6442 37.8365C68.8638 38.2019 69.1485 38.4808 69.4985 38.6731ZM71.6805 37.8173C71.4198 38.1442 71.0733 38.3077 70.641 38.3077C70.2155 38.3077 69.869 38.1442 69.6014 37.8173C69.3338 37.484 69.2 37.0513 69.2 36.5192C69.2 35.9808 69.3338 35.5449 69.6014 35.2115C69.869 34.8782 70.2155 34.7115 70.641 34.7115C71.0733 34.7115 71.4198 34.8782 71.6805 35.2115C71.9481 35.5449 72.0819 35.9808 72.0819 36.5192C72.0819 37.0513 71.9481 37.484 71.6805 37.8173ZM75.7357 38.9615C75.2074 38.9615 74.8197 38.8077 74.5727 38.5C74.3257 38.1859 74.2021 37.7308 74.2021 37.1346V34.1731H75.0564V37.0288C75.0564 37.4647 75.1285 37.7821 75.2726 37.9808C75.4235 38.1795 75.6637 38.2788 75.9931 38.2788C76.2538 38.2788 76.4837 38.2179 76.6827 38.0962C76.8885 37.9679 77.1081 37.766 77.3414 37.4904V34.1731H78.1854V38.8462H77.4855L77.4135 38.1154H77.3826C77.1493 38.3718 76.9023 38.5769 76.6415 38.7308C76.3808 38.8846 76.0788 38.9615 75.7357 38.9615ZM79.8728 34.1731V38.8462H80.7168V35.8462C80.8884 35.4487 81.0874 35.1699 81.3138 35.0096C81.5471 34.8494 81.7701 34.7692 81.9828 34.7692C82.0858 34.7692 82.1715 34.7756 82.2402 34.7885C82.3088 34.8013 82.3842 34.8205 82.4666 34.8462L82.6313 34.1538C82.4734 34.0897 82.295 34.0577 82.0961 34.0577C81.8147 34.0577 81.5505 34.1442 81.3035 34.3173C81.0565 34.4904 80.8472 34.7244 80.6757 35.0192H80.6448L80.5727 34.1731H79.8728ZM85.3168 38.9615C84.8776 38.9615 84.4796 38.8654 84.1228 38.6731C83.766 38.4808 83.4847 38.2019 83.2788 37.8365C83.073 37.4712 82.97 37.0321 82.97 36.5192C82.97 35.9936 83.0798 35.5481 83.2994 35.1827C83.5258 34.8173 83.8209 34.5385 84.1846 34.3462C84.5551 34.1538 84.9531 34.0577 85.3785 34.0577C85.7079 34.0577 85.9892 34.1122 86.2225 34.2212C86.4627 34.3301 86.6685 34.4583 86.8401 34.6058L86.4078 35.125C86.2637 35.0032 86.1093 34.9038 85.9446 34.8269C85.7868 34.75 85.6084 34.7115 85.4094 34.7115C85.1075 34.7115 84.8364 34.7885 84.5963 34.9423C84.363 35.0897 84.1777 35.3013 84.0405 35.5769C83.9101 35.8462 83.8449 36.1603 83.8449 36.5192C83.8449 37.0513 83.9856 37.484 84.2669 37.8173C84.5551 38.1442 84.9291 38.3077 85.3888 38.3077C85.6221 38.3077 85.8383 38.2628 86.0373 38.1731C86.2362 38.0769 86.4112 37.9647 86.5622 37.8365L86.9327 38.3654C86.7063 38.5513 86.4558 38.6987 86.1814 38.8077C85.9069 38.9103 85.6187 38.9615 85.3168 38.9615ZM88.0346 34.1731V38.8462H88.8786V34.1731H88.0346ZM88.0552 33.0769C88.165 33.1667 88.3022 33.2115 88.4669 33.2115C88.6316 33.2115 88.7654 33.1667 88.8683 33.0769C88.9781 32.9808 89.033 32.8526 89.033 32.6923C89.033 32.5385 88.9781 32.4135 88.8683 32.3173C88.7654 32.2212 88.6316 32.1731 88.4669 32.1731C88.3022 32.1731 88.165 32.2212 88.0552 32.3173C87.9523 32.4135 87.9008 32.5385 87.9008 32.6923C87.9008 32.8526 87.9523 32.9808 88.0552 33.0769ZM90.5676 38.8462V34.1731H91.2675L91.3395 34.8462H91.3704C91.6105 34.6218 91.8644 34.4359 92.132 34.2885C92.3997 34.1346 92.705 34.0577 93.0481 34.0577C93.5764 34.0577 93.9607 34.2147 94.2009 34.5288C94.4479 34.8365 94.5714 35.2885 94.5714 35.8846V38.8462H93.7274V35.9904C93.7274 35.5545 93.6519 35.2372 93.501 35.0385C93.35 34.8397 93.1098 34.7404 92.7805 34.7404C92.5266 34.7404 92.2967 34.8013 92.0909 34.9231C91.8919 35.0449 91.6654 35.2244 91.4116 35.4615V38.8462H90.5676ZM96.3919 40.6731C96.7762 40.891 97.2737 41 97.8844 41C98.4058 41 98.8553 40.9231 99.2327 40.7692C99.6101 40.6218 99.9017 40.4263 100.108 40.1827C100.313 39.9391 100.416 39.6731 100.416 39.3846C100.416 38.9936 100.269 38.7115 99.9738 38.5385C99.6856 38.359 99.2498 38.2692 98.6666 38.2692H97.6991C97.3629 38.2692 97.1296 38.2212 96.9992 38.125C96.8757 38.0288 96.8139 37.9071 96.8139 37.7596C96.8139 37.6314 96.8448 37.5256 96.9065 37.4423C96.9683 37.3526 97.0438 37.2724 97.133 37.2019C97.3663 37.3109 97.6167 37.3654 97.8844 37.3654C98.2274 37.3654 98.5362 37.3013 98.8107 37.1731C99.0852 37.0385 99.3047 36.8494 99.4694 36.6058C99.6341 36.3622 99.7164 36.0737 99.7164 35.7404C99.7164 35.5417 99.6753 35.359 99.5929 35.1923C99.5175 35.0192 99.4214 34.8814 99.3047 34.7788H100.334V34.1731H98.5945C98.5053 34.141 98.399 34.1154 98.2755 34.0962C98.152 34.0705 98.0216 34.0577 97.8844 34.0577C97.5481 34.0577 97.2359 34.125 96.9477 34.2596C96.6595 34.3942 96.4297 34.5865 96.2581 34.8365C96.0866 35.0865 96.0008 35.3814 96.0008 35.7212C96.0008 35.9968 96.066 36.2436 96.1964 36.4615C96.3336 36.6795 96.4846 36.8526 96.6492 36.9808V37.0192C96.5189 37.1026 96.3953 37.2179 96.2787 37.3654C96.162 37.5128 96.1037 37.6859 96.1037 37.8846C96.1037 38.0641 96.1449 38.2179 96.2272 38.3462C96.3164 38.4744 96.4228 38.5737 96.5463 38.6442V38.6827C96.3199 38.8237 96.1415 38.984 96.0111 39.1635C95.8807 39.3494 95.8155 39.5417 95.8155 39.7404C95.8155 40.1442 96.0077 40.4551 96.3919 40.6731ZM98.6254 36.5385C98.4196 36.7372 98.1725 36.8365 97.8844 36.8365C97.5962 36.8365 97.3457 36.7372 97.133 36.5385C96.9271 36.3333 96.8242 36.0609 96.8242 35.7212C96.8242 35.3814 96.9271 35.1154 97.133 34.9231C97.3388 34.7308 97.5893 34.6346 97.8844 34.6346C98.1794 34.6346 98.4299 34.7308 98.6357 34.9231C98.8416 35.1154 98.9445 35.3814 98.9445 35.7212C98.9445 36.0609 98.8381 36.3333 98.6254 36.5385ZM99.1606 40.1538C98.8725 40.3526 98.4882 40.4519 98.0079 40.4519C97.555 40.4519 97.1982 40.3782 96.9374 40.2308C96.6835 40.0833 96.5566 39.8846 96.5566 39.6346C96.5566 39.5 96.5978 39.3654 96.6801 39.2308C96.7625 39.0962 96.8928 38.9679 97.0712 38.8462C97.181 38.8718 97.2908 38.891 97.4006 38.9038C97.5172 38.9167 97.6236 38.9231 97.7197 38.9231H98.5843C98.9068 38.9231 99.1538 38.9647 99.3253 39.0481C99.5037 39.1314 99.5929 39.2821 99.5929 39.5C99.5929 39.7436 99.4488 39.9615 99.1606 40.1538ZM104.236 38.8462L102.846 34.1731H103.711L104.452 36.875C104.507 37.0929 104.558 37.3109 104.607 37.5288C104.655 37.7404 104.703 37.9551 104.751 38.1731H104.792C104.847 37.9551 104.902 37.7404 104.956 37.5288C105.011 37.3109 105.07 37.0929 105.131 36.875L105.903 34.1731H106.727L107.509 36.875C107.571 37.0929 107.629 37.3109 107.684 37.5288C107.746 37.7404 107.804 37.9551 107.859 38.1731H107.9C107.955 37.9551 108.007 37.7404 108.055 37.5288C108.109 37.3109 108.161 37.0929 108.209 36.875L108.94 34.1731H109.743L108.404 38.8462H107.375L106.655 36.3365C106.593 36.1122 106.535 35.891 106.48 35.6731C106.432 35.4551 106.377 35.2276 106.315 34.9904H106.274C106.219 35.2276 106.164 35.4583 106.109 35.6827C106.054 35.9006 105.993 36.1218 105.924 36.3462L105.224 38.8462H104.236ZM110.831 34.1731V38.8462H111.675V34.1731H110.831ZM110.852 33.0769C110.962 33.1667 111.099 33.2115 111.264 33.2115C111.428 33.2115 111.562 33.1667 111.665 33.0769C111.775 32.9808 111.83 32.8526 111.83 32.6923C111.83 32.5385 111.775 32.4135 111.665 32.3173C111.562 32.2212 111.428 32.1731 111.264 32.1731C111.099 32.1731 110.962 32.2212 110.852 32.3173C110.749 32.4135 110.697 32.5385 110.697 32.6923C110.697 32.8526 110.749 32.9808 110.852 33.0769ZM114.939 38.9615C114.404 38.9615 114.03 38.8173 113.817 38.5288C113.611 38.2404 113.508 37.8654 113.508 37.4038V34.8173H112.767V34.2212L113.549 34.1731L113.652 32.8654H114.363V34.1731H115.711V34.8173H114.363V37.4135C114.363 37.7019 114.417 37.9263 114.527 38.0865C114.644 38.2404 114.846 38.3173 115.135 38.3173C115.224 38.3173 115.32 38.3045 115.423 38.2788L115.701 38.1923L115.865 38.7885C115.728 38.8333 115.577 38.8718 115.412 38.9038C115.255 38.9423 115.097 38.9615 114.939 38.9615ZM116.842 32V38.8462H117.686V35.4615C117.94 35.2244 118.166 35.0449 118.365 34.9231C118.571 34.8013 118.801 34.7404 119.055 34.7404C119.384 34.7404 119.624 34.8397 119.775 35.0385C119.926 35.2372 120.002 35.5545 120.002 35.9904V38.8462H120.846V35.8846C120.846 35.2885 120.722 34.8365 120.475 34.5288C120.235 34.2147 119.851 34.0577 119.323 34.0577C118.979 34.0577 118.674 34.1346 118.406 34.2885C118.146 34.4359 117.895 34.6154 117.655 34.8269L117.686 33.8654V32H116.842ZM124.584 32.5385H126.591C127.05 32.5385 127.452 32.5897 127.795 32.6923C128.145 32.7949 128.416 32.9583 128.608 33.1827C128.807 33.4071 128.906 33.7051 128.906 34.0769C128.906 34.391 128.821 34.6763 128.649 34.9327C128.484 35.1827 128.241 35.3558 127.918 35.4519V35.4904C128.323 35.5609 128.653 35.7212 128.906 35.9712C129.167 36.2212 129.298 36.5641 129.298 37C129.298 37.4103 129.188 37.7532 128.968 38.0288C128.755 38.3045 128.457 38.5096 128.073 38.6442C127.688 38.7788 127.242 38.8462 126.735 38.8462H124.584V32.5385ZM125.438 35.2212H126.436C127.013 35.2212 127.428 35.1282 127.682 34.9423C127.935 34.7564 128.062 34.5032 128.062 34.1827C128.062 33.8173 127.929 33.5577 127.661 33.4038C127.4 33.25 127.006 33.1731 126.477 33.1731H125.438V35.2212ZM125.438 38.2115H126.611C127.194 38.2115 127.647 38.1122 127.97 37.9135C128.292 37.7083 128.454 37.3942 128.454 36.9712C128.454 36.5801 128.292 36.2949 127.97 36.1154C127.654 35.9295 127.201 35.8365 126.611 35.8365H125.438V38.2115ZM131.365 38.6731C131.729 38.8654 132.134 38.9615 132.58 38.9615C132.923 38.9615 133.228 38.9135 133.496 38.8173C133.77 38.7212 134.014 38.609 134.227 38.4808L133.928 37.9615C133.743 38.0705 133.547 38.1603 133.341 38.2308C133.142 38.2949 132.923 38.3269 132.683 38.3269C132.202 38.3269 131.811 38.1795 131.509 37.8846C131.214 37.5897 131.05 37.1955 131.015 36.7019H134.391C134.405 36.6442 134.412 36.5769 134.412 36.5C134.419 36.4167 134.422 36.3333 134.422 36.25C134.422 35.5833 134.247 35.0513 133.897 34.6538C133.554 34.2564 133.064 34.0577 132.425 34.0577C132.048 34.0577 131.688 34.1571 131.345 34.3558C131.002 34.5545 130.72 34.8365 130.501 35.2019C130.288 35.5673 130.182 36.0064 130.182 36.5192C130.182 37.0256 130.288 37.4615 130.501 37.8269C130.713 38.1923 131.002 38.4744 131.365 38.6731ZM133.681 36.1346H131.005C131.06 35.6731 131.225 35.3173 131.499 35.0673C131.78 34.8109 132.096 34.6827 132.446 34.6827C132.837 34.6827 133.139 34.8077 133.352 35.0577C133.571 35.3013 133.681 35.6603 133.681 36.1346ZM137.133 38.9615C136.597 38.9615 136.223 38.8173 136.011 38.5288C135.805 38.2404 135.702 37.8654 135.702 37.4038V34.8173H134.961V34.2212L135.743 34.1731L135.846 32.8654H136.556V34.1731H137.904V34.8173H136.556V37.4135C136.556 37.7019 136.611 37.9263 136.721 38.0865C136.837 38.2404 137.04 38.3173 137.328 38.3173C137.417 38.3173 137.513 38.3045 137.616 38.2788L137.894 38.1923L138.059 38.7885C137.922 38.8333 137.771 38.8718 137.606 38.9038C137.448 38.9423 137.29 38.9615 137.133 38.9615ZM139.287 38.5288C139.5 38.8173 139.874 38.9615 140.409 38.9615C140.567 38.9615 140.725 38.9423 140.883 38.9038C141.047 38.8718 141.198 38.8333 141.336 38.7885L141.171 38.1923L140.893 38.2788C140.79 38.3045 140.694 38.3173 140.605 38.3173C140.317 38.3173 140.114 38.2404 139.998 38.0865C139.888 37.9263 139.833 37.7019 139.833 37.4135V34.8173H141.181V34.1731H139.833V32.8654H139.123L139.02 34.1731L138.238 34.2212V34.8173H138.979V37.4038C138.979 37.8654 139.082 38.2404 139.287 38.5288ZM144.199 38.9615C143.753 38.9615 143.348 38.8654 142.985 38.6731C142.621 38.4744 142.333 38.1923 142.12 37.8269C141.907 37.4615 141.801 37.0256 141.801 36.5192C141.801 36.0064 141.907 35.5673 142.12 35.2019C142.34 34.8365 142.621 34.5545 142.964 34.3558C143.307 34.1571 143.667 34.0577 144.045 34.0577C144.683 34.0577 145.174 34.2564 145.517 34.6538C145.867 35.0513 146.042 35.5833 146.042 36.25C146.042 36.3333 146.038 36.4167 146.031 36.5C146.031 36.5769 146.024 36.6442 146.011 36.7019H142.635C142.669 37.1955 142.834 37.5897 143.129 37.8846C143.431 38.1795 143.822 38.3269 144.302 38.3269C144.542 38.3269 144.762 38.2949 144.961 38.2308C145.167 38.1603 145.362 38.0705 145.548 37.9615L145.846 38.4808C145.633 38.609 145.39 38.7212 145.115 38.8173C144.848 38.9135 144.542 38.9615 144.199 38.9615ZM142.624 36.1346H145.301C145.301 35.6603 145.191 35.3013 144.971 35.0577C144.758 34.8077 144.457 34.6827 144.065 34.6827C143.715 34.6827 143.4 34.8109 143.119 35.0673C142.844 35.3173 142.679 35.6731 142.624 36.1346ZM147.278 34.1731V38.8462H148.122V35.8462C148.293 35.4487 148.492 35.1699 148.719 35.0096C148.952 34.8494 149.175 34.7692 149.388 34.7692C149.491 34.7692 149.576 34.7756 149.645 34.7885C149.714 34.8013 149.789 34.8205 149.871 34.8462L150.036 34.1538C149.878 34.0897 149.7 34.0577 149.501 34.0577C149.22 34.0577 148.955 34.1442 148.708 34.3173C148.461 34.4904 148.252 34.7244 148.081 35.0192H148.05L147.978 34.1731H147.278ZM155.48 38.2981C155.885 38.2981 156.234 38.1923 156.53 37.9808C156.831 37.7628 157.065 37.4583 157.229 37.0673C157.394 36.6699 157.476 36.2019 157.476 35.6635C157.476 34.8814 157.295 34.2628 156.931 33.8077C156.567 33.3526 156.084 33.125 155.48 33.125C154.876 33.125 154.392 33.3526 154.028 33.8077C153.665 34.2628 153.483 34.8814 153.483 35.6635C153.483 36.2019 153.565 36.6699 153.73 37.0673C153.895 37.4583 154.128 37.7628 154.43 37.9808C154.732 38.1923 155.082 38.2981 155.48 38.2981ZM157.549 40.4327C156.924 40.4327 156.403 40.2885 155.984 40C155.565 39.7179 155.257 39.3622 155.058 38.9327C154.57 38.8686 154.142 38.6955 153.771 38.4135C153.401 38.1314 153.112 37.7564 152.907 37.2885C152.701 36.8205 152.598 36.2788 152.598 35.6635C152.598 34.9904 152.718 34.4135 152.958 33.9327C153.205 33.4455 153.545 33.0737 153.977 32.8173C154.416 32.5545 154.917 32.4231 155.48 32.4231C156.049 32.4231 156.55 32.5545 156.982 32.8173C157.415 33.0737 157.754 33.4455 158.001 33.9327C158.248 34.4135 158.372 34.9904 158.372 35.6635C158.372 36.266 158.272 36.7981 158.073 37.2596C157.874 37.7212 157.597 38.0962 157.24 38.3846C156.883 38.6667 156.464 38.8462 155.984 38.9231C156.142 39.1987 156.365 39.4071 156.653 39.5481C156.948 39.6891 157.277 39.7596 157.641 39.7596C157.792 39.7596 157.926 39.75 158.043 39.7308C158.159 39.7179 158.262 39.6987 158.351 39.6731L158.516 40.2885C158.413 40.3269 158.276 40.359 158.104 40.3846C157.933 40.4167 157.747 40.4327 157.549 40.4327ZM160.04 38.5C160.287 38.8077 160.675 38.9615 161.203 38.9615C161.546 38.9615 161.848 38.8846 162.109 38.7308C162.37 38.5769 162.617 38.3718 162.85 38.1154H162.881L162.953 38.8462H163.653V34.1731H162.809V37.4904C162.575 37.766 162.356 37.9679 162.15 38.0962C161.951 38.2179 161.721 38.2788 161.46 38.2788C161.131 38.2788 160.891 38.1795 160.74 37.9808C160.596 37.7821 160.524 37.4647 160.524 37.0288V34.1731H159.669V37.1346C159.669 37.7308 159.793 38.1859 160.04 38.5ZM166.493 38.9615C166.074 38.9615 165.724 38.8462 165.443 38.6154C165.169 38.3782 165.031 38.0513 165.031 37.6346C165.031 37.1218 165.275 36.7308 165.762 36.4615C166.256 36.1859 167.035 35.9936 168.099 35.8846C168.099 35.6859 168.068 35.4968 168.006 35.3173C167.951 35.1378 167.848 34.9936 167.697 34.8846C167.553 34.7692 167.344 34.7115 167.069 34.7115C166.781 34.7115 166.51 34.7628 166.256 34.8654C166.002 34.9679 165.776 35.0833 165.577 35.2115L165.247 34.6635C165.481 34.5224 165.766 34.3878 166.102 34.2596C166.445 34.125 166.815 34.0577 167.213 34.0577C167.824 34.0577 168.267 34.234 168.541 34.5865C168.816 34.9327 168.953 35.3974 168.953 35.9808V38.8462H168.253L168.181 38.2885H168.15C167.917 38.4679 167.659 38.625 167.378 38.7596C167.104 38.8942 166.809 38.9615 166.493 38.9615ZM166.74 38.3269C166.98 38.3269 167.207 38.2724 167.419 38.1635C167.632 38.0545 167.858 37.9006 168.099 37.7019V36.4038C167.268 36.5 166.685 36.6442 166.349 36.8365C166.019 37.0288 165.855 37.2756 165.855 37.5769C165.855 37.8397 165.941 38.0321 166.112 38.1538C166.284 38.2692 166.493 38.3269 166.74 38.3269ZM170.733 38.6923C170.877 38.8718 171.106 38.9615 171.422 38.9615C171.539 38.9615 171.635 38.9551 171.71 38.9423C171.786 38.9295 171.851 38.9103 171.906 38.8846L171.793 38.2885C171.745 38.2949 171.707 38.3013 171.679 38.3077H171.607C171.546 38.3077 171.491 38.2821 171.443 38.2308C171.395 38.1731 171.371 38.0833 171.371 37.9615V32H170.527V37.9038C170.527 38.2436 170.595 38.5064 170.733 38.6923ZM173.15 38.8462V34.1731H173.994V38.8462H173.15ZM173.582 33.2115C173.418 33.2115 173.28 33.1667 173.171 33.0769C173.068 32.9808 173.016 32.8526 173.016 32.6923C173.016 32.5385 173.068 32.4135 173.171 32.3173C173.28 32.2212 173.418 32.1731 173.582 32.1731C173.747 32.1731 173.881 32.2212 173.984 32.3173C174.094 32.4135 174.148 32.5385 174.148 32.6923C174.148 32.8526 174.094 32.9808 173.984 33.0769C173.881 33.1667 173.747 33.2115 173.582 33.2115ZM176.136 38.5288C176.349 38.8173 176.723 38.9615 177.258 38.9615C177.416 38.9615 177.573 38.9423 177.731 38.9038C177.896 38.8718 178.047 38.8333 178.184 38.7885L178.019 38.1923L177.742 38.2788C177.639 38.3045 177.543 38.3173 177.453 38.3173C177.165 38.3173 176.963 38.2404 176.846 38.0865C176.736 37.9263 176.681 37.7019 176.681 37.4135V34.8173H178.03V34.1731H176.681V32.8654H175.971L175.868 34.1731L175.086 34.2212V34.8173H175.827V37.4038C175.827 37.8654 175.93 38.2404 176.136 38.5288ZM179.243 40.8558C179.133 40.8558 179.027 40.8462 178.924 40.8269C178.828 40.8077 178.739 40.7853 178.656 40.7596L178.821 40.1346C178.876 40.1474 178.938 40.1603 179.006 40.1731C179.075 40.1923 179.14 40.2019 179.202 40.2019C179.483 40.2019 179.717 40.1058 179.902 39.9135C180.087 39.7276 180.231 39.4904 180.334 39.2019L180.447 38.8558L178.44 34.1731H179.315L180.334 36.7596C180.41 36.9583 180.489 37.1731 180.571 37.4038C180.66 37.6346 180.742 37.859 180.818 38.0769H180.859C180.935 37.8654 181.007 37.6442 181.075 37.4135C181.144 37.1827 181.213 36.9647 181.281 36.7596L182.177 34.1731H183L181.116 39.2308C181 39.5385 180.859 39.8141 180.694 40.0577C180.537 40.3013 180.338 40.4936 180.097 40.6346C179.864 40.7821 179.579 40.8558 179.243 40.8558Z" fill="black" />
</svg>