<?xml version="1.0" encoding="UTF-8" standalone="no"?>
<svg width="224px" height="52px" viewBox="0 0 224 52" version="1.1" xmlns="http://www.w3.org/2000/svg" xmlns:xlink="http://www.w3.org/1999/xlink" xmlns:sketch="http://www.bohemiancoding.com/sketch/ns">
    <!-- Generator: Sketch 3.4.4 (17249) - http://www.bohemiancoding.com/sketch -->
    <title>js-group-logo</title>
    <desc>Created with Sketch.</desc>
    <defs>
        <path id="path-1" d="M0,1.43688889 L229.627548,1.43688889 L229.627548,53 L0,53"></path>
        <path id="path-3" d="M0,1.43688889 L229.627548,1.43688889 L229.627548,53 L0,53 L0,1.43688889 Z"></path>
    </defs>
    <g id="Page-1" stroke="none" stroke-width="1" fill="none" fill-rule="evenodd" sketch:type="MSPage">
        <g id="Desktop" sketch:type="MSArtboardGroup" transform="translate(-97.000000, -14.000000)">
            <g id="js-group-logo" sketch:type="MSLayerGroup" transform="translate(97.000000, 13.000000)">
                <g id="Group-3">
                    <mask id="mask-2" sketch:name="Clip 2" fill="white">
                        <use xlink:href="#path-1"></use>
                    </mask>
                    <g id="Clip-2"></g>
                    <path d="M51.5787613,7.91128056 C51.5787613,7.91128056 50.2536645,9.65586389 51.2908903,13.5086694 C51.7316,15.1457806 54.5524387,16.1321694 58.1092774,17.1156139 C61.6661161,18.0990583 71.9626968,20.5385306 74.1157935,22.3626139 C76.4870194,24.370725 78.4145677,26.1741972 72.6334065,31.2165583 C68.0586323,35.2062806 55.2780516,40.2265583 49.2164387,42.3656972 C40.6188903,45.398475 -0.000593548387,52.9995583 -0.000593548387,52.9995583 C-0.000593548387,52.9995583 28.4570839,43.6538917 34.9786968,41.1128361 C41.5003097,38.5717806 48.7623742,35.169475 51.5787613,33.2423361 C54.249729,31.4153083 56.9533419,29.6324472 57.9519871,27.259225 C58.6939226,25.4955028 60.137729,22.621725 54.2467613,20.3721694 C48.0219226,17.9945306 45.6506968,17.7486694 42.0923742,16.6827806 C38.5355355,15.6168917 34.6819226,14.3051417 34.9786968,12.4206972 C35.275471,10.5347806 38.5355355,9.55133611 42.3891484,8.81375278 C46.2427613,8.07469722 51.5787613,7.91128056 51.5787613,7.91128056" id="Fill-1" fill="#221F20" sketch:type="MSShapeGroup" mask="url(#mask-2)"></path>
                </g>
                <path d="M23.2078903,18.781875 C23.2078903,18.781875 29.0498903,18.437375 34.7212452,18.609625 C40.3911161,18.781875 42.588729,19.2264861 44.3441484,19.7726806 C46.4913097,20.4410694 47.2658903,21.842625 46.7495032,22.9644583 C44.612729,26.3976806 41.7666645,27.8787361 39.0170516,29.7764306 C36.2674387,31.6726528 25.7853742,36.9329028 21.8338258,38.6141806 C18.9417613,39.8449583 7.2266,44.5649028 7.2266,44.5649028 C7.2266,44.5649028 10.1795032,42.3153472 13.862471,40.4677083 C16.9548581,38.9159861 22.9689871,35.3370139 25.5479548,33.5261806 C27.960729,31.8301806 31.3899548,28.8268472 31.9048581,27.791875 C32.8649226,25.8662083 32.1496968,25.433375 30.8735677,24.6869583 C29.8437613,24.0833472 27.7811806,23.4370417 24.3445355,23.048375 C20.9078903,22.6611806 23.2078903,18.781875 23.2078903,18.781875" id="Fill-4" fill="#4D4D4D" sketch:type="MSShapeGroup"></path>
                <path d="M55.0579935,5.26363611 C51.2385097,5.26363611 48.141671,4.40680278 48.141671,3.34974722 C48.141671,2.29416389 51.2385097,1.43733056 55.0579935,1.43733056 C58.8789613,1.43733056 61.9743161,2.29416389 61.9743161,3.34974722 C61.9743161,4.40680278 58.8789613,5.26363611 55.0579935,5.26363611" id="Fill-6" fill="#4D4D4D" sketch:type="MSShapeGroup"></path>
                <mask id="mask-4" sketch:name="Clip 8" fill="white">
                    <use xlink:href="#path-3"></use>
                </mask>
                <g id="Clip-8"></g>
                <path d="M89.7967343,22.5861251 C89.9487085,23.3839893 90.3048925,24.0536153 90.8652971,24.5950231 C91.4257018,25.136431 92.1618154,25.4071309 93.0736603,25.4071309 C93.7765407,25.4071309 94.3559334,25.2789046 94.8118558,25.0224483 C95.2677782,24.7659919 95.6334605,24.4193061 95.9089136,23.9823805 C96.1843667,23.5454548 96.3743315,23.0467972 96.4788138,22.4863925 C96.583296,21.9259879 96.6355363,21.3418461 96.6355363,20.7339495 L96.6355363,6.51494035 L98.6871769,6.51494035 L98.6871769,20.8764246 C98.6871769,21.5413114 98.6159401,22.2441812 98.4734644,22.9850552 C98.3309886,23.7259291 98.0602887,24.4098025 97.6613566,25.0366958 C97.2624245,25.6635891 96.7115265,26.1812432 96.0086461,26.5896737 C95.3057657,26.9981042 94.4034328,27.2023164 93.3016203,27.2023164 C91.8388693,27.2023164 90.6325926,26.8176376 89.6827543,26.0482686 C88.7329159,25.2788995 88.1345267,24.2958315 87.8875688,23.0990352 L89.7967343,22.5861251 Z M113.667056,9.7633713 C113.230131,9.15547475 112.669734,8.66631533 111.985851,8.29587837 C111.301967,7.92544141 110.47562,7.74022571 109.506785,7.74022571 C109.012869,7.74022571 108.509462,7.81621164 107.99655,7.96818578 C107.483637,8.12015992 107.018223,8.35286682 106.600294,8.66631348 C106.182365,8.97976014 105.845178,9.37393715 105.588721,9.84885633 C105.332265,10.3237755 105.204039,10.8841717 105.204039,11.5300618 C105.204039,12.1759519 105.327516,12.7078534 105.574474,13.1257823 C105.821432,13.5437112 106.149121,13.8998952 106.557552,14.1943451 C106.965982,14.488795 107.431396,14.7310001 107.953807,14.9209678 C108.476218,15.1109355 109.022367,15.3009003 109.59227,15.490868 C110.29515,15.7188292 111.002769,15.9657835 111.715148,16.2317382 C112.427527,16.4976929 113.068658,16.8443787 113.638561,17.271806 C114.208464,17.6992333 114.673878,18.240633 115.034817,18.8960215 C115.395755,19.5514099 115.576222,20.382506 115.576222,21.3893347 C115.576222,22.3961634 115.381508,23.2652524 114.992074,23.996628 C114.60264,24.7280035 114.099234,25.3311418 113.481839,25.806061 C112.864444,26.2809802 112.161574,26.6324151 111.373208,26.8603763 C110.584842,27.0883375 109.791739,27.2023164 108.993875,27.2023164 C108.385978,27.2023164 107.778091,27.1405778 107.170194,27.0170988 C106.562298,26.8936199 105.982905,26.7084042 105.431999,26.4614462 C104.881093,26.2144882 104.368188,25.9010463 103.893268,25.5211109 C103.418349,25.1411756 103.000427,24.7042565 102.639488,24.2103405 L104.406179,22.8995701 C104.843104,23.6214473 105.455741,24.2245856 106.244107,24.7090032 C107.032472,25.1934207 107.958551,25.4356259 109.02237,25.4356259 C109.535283,25.4356259 110.057686,25.3548908 110.589595,25.1934183 C111.121505,25.0319458 111.601166,24.7849915 112.028593,24.4525481 C112.456021,24.1201047 112.807455,23.7116803 113.082909,23.2272627 C113.358362,22.7428452 113.496086,22.1776998 113.496086,21.5318097 C113.496086,20.8289294 113.358362,20.2447875 113.082909,19.7793667 C112.807455,19.3139459 112.441773,18.924518 111.985851,18.6110714 C111.529928,18.2976247 111.007525,18.0364231 110.418625,17.8274587 C109.829726,17.6184942 109.21234,17.4095329 108.56645,17.2005685 C107.901563,16.991604 107.246184,16.754148 106.600294,16.4881933 C105.954404,16.2222385 105.375011,15.8755527 104.862099,15.4481255 C104.349186,15.0206982 103.936013,14.4935458 103.622566,13.8666525 C103.309119,13.2397592 103.152398,12.4704017 103.152398,11.5585568 C103.152398,10.5897217 103.347112,9.75387648 103.736546,9.05099609 C104.12598,8.34811571 104.634136,7.768723 105.261029,7.31280059 C105.887922,6.85687817 106.581294,6.52443973 107.341164,6.31547529 C108.101035,6.10651085 108.851396,6.0020302 109.59227,6.0020302 C110.960037,6.0020302 112.128321,6.24423535 113.097156,6.72865291 C114.065991,7.21307048 114.797356,7.78771407 115.291272,8.45260092 L113.667056,9.7633713 Z M142.430025,10.1338064 C141.727144,9.39293249 140.891299,8.8182889 139.922464,8.40985841 C138.953629,8.00142791 137.842335,7.79721573 136.588548,7.79721573 C135.296768,7.79721573 134.133233,8.03467176 133.097909,8.50959094 C132.062586,8.98451012 131.183998,9.62564139 130.462121,10.433004 C129.740244,11.2403666 129.184597,12.1759434 128.795163,13.2397623 C128.405729,14.3035813 128.211016,15.4243737 128.211016,16.6021733 C128.211016,17.7799729 128.405729,18.9007653 128.795163,19.9645843 C129.184597,21.0284032 129.740244,21.9592309 130.462121,22.7570951 C131.183998,23.5549593 132.062586,24.1913415 133.097909,24.6662607 C134.133233,25.1411798 135.296768,25.3786359 136.588548,25.3786359 C137.728354,25.3786359 138.773161,25.2551587 139.722999,25.0082008 C140.672837,24.7612428 141.442195,24.4478008 142.031095,24.0678655 L142.031095,17.9414387 L137.329418,17.9414387 L137.329418,16.1462532 L144.082735,16.1462532 L144.082735,25.2361608 C142.980923,25.9010477 141.793643,26.3949562 140.520859,26.7179013 C139.248076,27.0408463 137.92782,27.2023164 136.560053,27.2023164 C135.040312,27.2023164 133.634572,26.9363657 132.342792,26.4044562 C131.051012,25.8725467 129.939717,25.136433 129.008876,24.196093 C128.078034,23.255753 127.351419,22.1397097 126.829008,20.8479295 C126.306597,19.5561494 126.045395,18.1409114 126.045395,16.6021733 C126.045395,15.0634352 126.311346,13.6481972 126.843255,12.3564171 C127.375165,11.0646369 128.111278,9.94859356 129.051618,9.00825358 C129.991958,8.0679136 131.103252,7.33179992 132.385534,6.79989044 C133.667816,6.26798095 135.059308,6.0020302 136.560053,6.0020302 C138.174778,6.0020302 139.580518,6.23948623 140.777314,6.71440541 C141.974111,7.18932459 142.999921,7.85420147 143.854775,8.70905599 L142.430025,10.1338064 Z M151.397457,26.6894063 L149.345817,26.6894063 L149.345817,6.51494035 L155.272778,6.51494035 C156.26061,6.51494035 157.177191,6.60992276 158.022547,6.79989044 C158.867903,6.98985811 159.599267,7.29855094 160.216662,7.72597821 C160.834057,8.15340547 161.313718,8.70905257 161.65566,9.39293619 C161.997602,10.0768198 162.16857,10.912665 162.16857,11.9004969 C162.16857,12.6413708 162.035595,13.315746 161.76964,13.9236425 C161.503686,14.5315391 161.142752,15.0586915 160.68683,15.5051155 C160.230908,15.9515395 159.689508,16.3077236 159.062615,16.5736783 C158.435721,16.839633 157.751848,17.0106014 157.010974,17.0865884 L162.909441,26.6894063 L160.40188,26.6894063 L154.816858,17.2575585 L151.397457,17.2575585 L151.397457,26.6894063 Z M151.397457,15.490868 L154.959333,15.490868 C156.612052,15.490868 157.884816,15.1916734 158.777664,14.5932752 C159.670513,13.994877 160.11693,13.0972933 160.11693,11.9004969 C160.11693,11.2356101 159.993453,10.6752138 159.746495,10.2192914 C159.499537,9.76336902 159.1576,9.39293762 158.720674,9.10798611 C158.283749,8.8230346 157.751847,8.6140733 157.124954,8.48109593 C156.498061,8.34811856 155.804689,8.28163087 155.044818,8.28163087 L151.397457,8.28163087 L151.397457,15.490868 Z M186.380833,16.6021733 C186.380833,18.1409114 186.114882,19.5561494 185.582972,20.8479295 C185.051063,22.1397097 184.314949,23.255753 183.374609,24.196093 C182.434269,25.136433 181.322975,25.8725467 180.040693,26.4044562 C178.758411,26.9363657 177.366919,27.2023164 175.866174,27.2023164 C174.36543,27.2023164 172.973938,26.9363657 171.691656,26.4044562 C170.409374,25.8725467 169.29808,25.136433 168.35774,24.196093 C167.4174,23.255753 166.681286,22.1397097 166.149377,20.8479295 C165.617467,19.5561494 165.351516,18.1409114 165.351516,16.6021733 C165.351516,15.0634352 165.617467,13.6481972 166.149377,12.3564171 C166.681286,11.0646369 167.4174,9.94859356 168.35774,9.00825358 C169.29808,8.0679136 170.409374,7.33179992 171.691656,6.79989044 C172.973938,6.26798095 174.36543,6.0020302 175.866174,6.0020302 C177.366919,6.0020302 178.758411,6.26798095 180.040693,6.79989044 C181.322975,7.33179992 182.434269,8.0679136 183.374609,9.00825358 C184.314949,9.94859356 185.051063,11.0646369 185.582972,12.3564171 C186.114882,13.6481972 186.380833,15.0634352 186.380833,16.6021733 L186.380833,16.6021733 Z M184.215212,16.6021733 C184.215212,15.4243737 184.025247,14.3035813 183.645312,13.2397623 C183.265376,12.1759434 182.714478,11.2403666 181.992601,10.433004 C181.270724,9.62564139 180.392137,8.98451012 179.356813,8.50959094 C178.321489,8.03467176 177.157955,7.79721573 175.866174,7.79721573 C174.574394,7.79721573 173.41086,8.03467176 172.375536,8.50959094 C171.340212,8.98451012 170.461625,9.62564139 169.739748,10.433004 C169.017871,11.2403666 168.466973,12.1759434 168.087037,13.2397623 C167.707102,14.3035813 167.517137,15.4243737 167.517137,16.6021733 C167.517137,17.7799729 167.707102,18.9007653 168.087037,19.9645843 C168.466973,21.0284032 169.017871,21.9592309 169.739748,22.7570951 C170.461625,23.5549593 171.340212,24.1913415 172.375536,24.6662607 C173.41086,25.1411798 174.574394,25.3786359 175.866174,25.3786359 C177.157955,25.3786359 178.321489,25.1411798 179.356813,24.6662607 C180.392137,24.1913415 181.270724,23.5549593 181.992601,22.7570951 C182.714478,21.9592309 183.265376,21.0284032 183.645312,19.9645843 C184.025247,18.9007653 184.215212,17.7799729 184.215212,16.6021733 L184.215212,16.6021733 Z M198.112281,27.2023164 C196.59254,27.2023164 195.34827,26.9411148 194.379435,26.4187037 C193.4106,25.8962926 192.641242,25.2361648 192.071339,24.4383006 C191.501436,23.6404364 191.107259,22.7713473 190.888796,21.8310073 C190.670334,20.8906674 190.561104,20.0025818 190.561104,19.1667241 L190.561104,6.51494035 L192.612744,6.51494035 L192.612744,18.938764 C192.612744,19.755625 192.707727,20.5487281 192.897694,21.3180972 C193.087662,22.0874663 193.396355,22.7713396 193.823782,23.3697378 C194.251209,23.9681359 194.816355,24.4525462 195.519235,24.8229832 C196.222116,25.1934202 197.086456,25.3786359 198.112281,25.3786359 C199.138106,25.3786359 200.002446,25.1934202 200.705327,24.8229832 C201.408207,24.4525462 201.973352,23.9681359 202.40078,23.3697378 C202.828207,22.7713396 203.1369,22.0874663 203.326867,21.3180972 C203.516835,20.5487281 203.611818,19.755625 203.611818,18.938764 L203.611818,6.51494035 L205.663458,6.51494035 L205.663458,19.1667241 C205.663458,20.0025818 205.554228,20.8906674 205.335766,21.8310073 C205.117303,22.7713473 204.723126,23.6404364 204.153223,24.4383006 C203.58332,25.2361648 202.809213,25.8962926 201.83088,26.4187037 C200.852546,26.9411148 199.613026,27.2023164 198.112281,27.2023164 L198.112281,27.2023164 Z M210.92654,6.51494035 L216.625541,6.51494035 C217.651367,6.51494035 218.582194,6.62417013 219.418052,6.84263295 C220.25391,7.06109577 220.971027,7.39353421 221.569425,7.83995824 C222.167823,8.28638227 222.628488,8.8467785 222.951433,9.52116373 C223.274378,10.195549 223.435848,10.9886521 223.435848,11.9004969 C223.435848,12.8123418 223.269629,13.6054449 222.937186,14.2798301 C222.604742,14.9542154 222.139328,15.5146116 221.54093,15.9610356 C220.942532,16.4074596 220.220666,16.7446472 219.37531,16.9726084 C218.529954,17.2005696 217.594377,17.3145485 216.568551,17.3145485 L212.97818,17.3145485 L212.97818,26.6894063 L210.92654,26.6894063 L210.92654,6.51494035 Z M212.97818,15.576353 L216.454571,15.576353 C218.069297,15.576353 219.29457,15.262911 220.130427,14.6360177 C220.966285,14.0091244 221.384208,13.0972933 221.384208,11.9004969 C221.384208,10.6467103 220.952038,9.73013002 220.087685,9.15072862 C219.223332,8.57132722 218.012306,8.28163087 216.454571,8.28163087 L212.97818,8.28163087 L212.97818,15.576353 Z" id="JS-GROUP-Outlines" fill="#4D4D4D" sketch:type="MSShapeGroup" mask="url(#mask-4)"></path>
                <path d="M90.5232525,46.9353316 L89.5169415,46.9353316 L89.5169415,37.0399401 L90.5232525,37.0399401 L90.5232525,46.9353316 Z M102.132738,45.4258651 L102.160691,45.4258651 L102.160691,37.0399401 L103.167002,37.0399401 L103.167002,46.9353316 L101.909113,46.9353316 L96.0110126,38.4655474 L95.9830595,38.4655474 L95.9830595,46.9353316 L94.9767485,46.9353316 L94.9767485,37.0399401 L96.2346373,37.0399401 L102.132738,45.4258651 Z M110.793173,46.9353316 L109.786862,46.9353316 L109.786862,37.9623919 L106.474422,37.9623919 L106.474422,37.0399401 L114.105613,37.0399401 L114.105613,37.9623919 L110.793173,37.9623919 L110.793173,46.9353316 Z M118.419344,46.0128799 L123.716453,46.0128799 L123.716453,46.9353316 L117.413033,46.9353316 L117.413033,37.0399401 L123.548735,37.0399401 L123.548735,37.9623919 L118.419344,37.9623919 L118.419344,41.3307384 L123.213298,41.3307384 L123.213298,42.2531902 L118.419344,42.2531902 L118.419344,46.0128799 Z M128.477433,41.4145977 L130.26643,41.4145977 C130.713682,41.4145977 131.093374,41.3680097 131.405518,41.2748322 C131.717663,41.1816548 131.966909,41.0581966 132.153263,40.9044539 C132.339618,40.7507112 132.474724,40.5690179 132.558583,40.3593688 C132.642443,40.1497196 132.684372,39.9237678 132.684372,39.6815065 C132.684372,39.448563 132.642443,39.2272699 132.558583,39.0176208 C132.474724,38.8079716 132.339618,38.623949 132.153263,38.4655474 C131.966909,38.3071458 131.717663,38.1836876 131.405518,38.095169 C131.093374,38.0066505 130.713682,37.9623919 130.26643,37.9623919 L128.477433,37.9623919 L128.477433,41.4145977 Z M128.477433,46.9353316 L127.471122,46.9353316 L127.471122,37.0399401 L130.518008,37.0399401 C131.524324,37.0399401 132.31865,37.2589037 132.901008,37.6968376 C133.483367,38.1347714 133.774542,38.7963211 133.774542,39.6815065 C133.774542,40.3710193 133.557908,40.95104 133.124633,41.4215859 C132.691358,41.8921319 132.064749,42.1646717 131.244788,42.2392136 L134.096003,46.9353316 L132.866067,46.9353316 L130.154618,42.3370494 L128.477433,42.3370494 L128.477433,46.9353316 Z M144.685201,45.4258651 L144.713154,45.4258651 L144.713154,37.0399401 L145.719465,37.0399401 L145.719465,46.9353316 L144.461576,46.9353316 L138.563475,38.4655474 L138.535522,38.4655474 L138.535522,46.9353316 L137.529211,46.9353316 L137.529211,37.0399401 L138.7871,37.0399401 L144.685201,45.4258651 Z M151.472779,43.4132431 L155.763577,43.4132431 L153.625166,38.2139696 L151.472779,43.4132431 Z M150.005242,46.9353316 L148.831213,46.9353316 L153.135987,37.0399401 L154.114345,37.0399401 L158.41912,46.9353316 L157.245091,46.9353316 L156.15492,44.3356949 L151.095412,44.3356949 L150.005242,46.9353316 Z M164.703543,46.9353316 L163.697232,46.9353316 L163.697232,37.9623919 L160.384792,37.9623919 L160.384792,37.0399401 L168.015983,37.0399401 L168.015983,37.9623919 L164.703543,37.9623919 L164.703543,46.9353316 Z M172.329714,46.9353316 L171.323403,46.9353316 L171.323403,37.0399401 L172.329714,37.0399401 L172.329714,46.9353316 Z M185.336854,41.9876359 C185.336854,41.4192537 185.243678,40.8765034 185.057323,40.3593688 C184.870968,39.8422341 184.603087,39.3880011 184.253672,38.996656 C183.904256,38.6053108 183.477976,38.2931712 182.974818,38.0602277 C182.47166,37.8272841 181.903286,37.7108141 181.26968,37.7108141 C180.636074,37.7108141 180.0677,37.8272841 179.564542,38.0602277 C179.061384,38.2931712 178.635104,38.6053108 178.285688,38.996656 C177.936273,39.3880011 177.668392,39.8422341 177.482037,40.3593688 C177.295682,40.8765034 177.202506,41.4192537 177.202506,41.9876359 C177.202506,42.5560181 177.295682,43.0987683 177.482037,43.615903 C177.668392,44.1330376 177.936273,44.5872707 178.285688,44.9786158 C178.635104,45.3699609 179.061384,45.6821006 179.564542,45.9150441 C180.0677,46.1479876 180.636074,46.2644576 181.26968,46.2644576 C181.903286,46.2644576 182.47166,46.1479876 182.974818,45.9150441 C183.477976,45.6821006 183.904256,45.3699609 184.253672,44.9786158 C184.603087,44.5872707 184.870968,44.1330376 185.057323,43.615903 C185.243678,43.0987683 185.336854,42.5560181 185.336854,41.9876359 L185.336854,41.9876359 Z M186.427024,41.9876359 C186.427024,42.7423729 186.296577,43.4365342 186.035681,44.0701406 C185.774784,44.703747 185.413727,45.251156 184.952499,45.7123842 C184.49127,46.1736124 183.946191,46.5346695 183.317243,46.7955662 C182.688296,47.056463 182.005781,47.1869094 181.26968,47.1869094 C180.533578,47.1869094 179.851064,47.056463 179.222117,46.7955662 C178.593169,46.5346695 178.048089,46.1736124 177.586861,45.7123842 C177.125633,45.251156 176.764576,44.703747 176.503679,44.0701406 C176.242782,43.4365342 176.112336,42.7423729 176.112336,41.9876359 C176.112336,41.2328988 176.242782,40.5387375 176.503679,39.9051312 C176.764576,39.2715248 177.125633,38.7241157 177.586861,38.2628875 C178.048089,37.8016593 178.593169,37.4406023 179.222117,37.1797055 C179.851064,36.9188088 180.533578,36.7883624 181.26968,36.7883624 C182.005781,36.7883624 182.688296,36.9188088 183.317243,37.1797055 C183.946191,37.4406023 184.49127,37.8016593 184.952499,38.2628875 C185.413727,38.7241157 185.774784,39.2715248 186.035681,39.9051312 C186.296577,40.5387375 186.427024,41.2328988 186.427024,41.9876359 L186.427024,41.9876359 Z M197.365635,45.4258651 L197.393588,45.4258651 L197.393588,37.0399401 L198.399899,37.0399401 L198.399899,46.9353316 L197.14201,46.9353316 L191.24391,38.4655474 L191.215957,38.4655474 L191.215957,46.9353316 L190.209646,46.9353316 L190.209646,37.0399401 L191.467535,37.0399401 L197.365635,45.4258651 Z M204.153214,43.4132431 L208.444012,43.4132431 L206.305601,38.2139696 L204.153214,43.4132431 Z M202.685677,46.9353316 L201.511647,46.9353316 L205.816422,37.0399401 L206.79478,37.0399401 L211.099555,46.9353316 L209.925525,46.9353316 L208.835355,44.3356949 L203.775847,44.3356949 L202.685677,46.9353316 Z M215.217614,46.0128799 L219.829872,46.0128799 L219.829872,46.9353316 L214.211303,46.9353316 L214.211303,37.0399401 L215.217614,37.0399401 L215.217614,46.0128799 Z" id="INTERNATIONAL-Outlines" fill="#4D4D4D" sketch:type="MSShapeGroup" mask="url(#mask-4)"></path>
            </g>
        </g>
    </g>
</svg>